<mxfile host="65bd71144e">
    <diagram name="Class diagram" id="_IRGn7qEjiSoWe7VJrxL">
        <mxGraphModel dx="3200" dy="2753" grid="0" gridSize="10" guides="1" tooltips="1" connect="1" arrows="1" fold="1" page="0" pageScale="1" pageWidth="850" pageHeight="1100" math="0" shadow="0">
            <root>
                <mxCell id="2OkuZF6dqTFCMNim8TMD-0"/>
                <mxCell id="2OkuZF6dqTFCMNim8TMD-1" parent="2OkuZF6dqTFCMNim8TMD-0"/>
                <mxCell id="2OkuZF6dqTFCMNim8TMD-2" value="&lt;p style=&quot;margin: 4px 0px 0px; text-align: center; font-size: 15px;&quot;&gt;&lt;b style=&quot;font-size: 15px;&quot;&gt;UserModel&lt;/b&gt;&lt;/p&gt;&lt;hr style=&quot;font-size: 15px;&quot;&gt;&lt;p style=&quot;margin: 0px 0px 0px 4px; font-size: 15px;&quot;&gt;- userID: string&lt;/p&gt;&lt;p style=&quot;margin: 0px 0px 0px 4px; font-size: 15px;&quot;&gt;- username: string&lt;/p&gt;&lt;p style=&quot;margin: 0px 0px 0px 4px; font-size: 15px;&quot;&gt;- name: string&lt;/p&gt;&lt;p style=&quot;margin: 0px 0px 0px 4px; font-size: 15px;&quot;&gt;- email: string&lt;/p&gt;&lt;p style=&quot;margin: 0px 0px 0px 4px; font-size: 15px;&quot;&gt;- password: string&lt;/p&gt;&lt;hr style=&quot;font-size: 15px;&quot;&gt;&lt;p style=&quot;margin: 0px 0px 0px 4px; font-size: 15px;&quot;&gt;&lt;br style=&quot;font-size: 15px;&quot;&gt;&lt;/p&gt;" style="verticalAlign=top;align=left;overflow=fill;fontSize=15;fontFamily=Helvetica;html=1;" parent="2OkuZF6dqTFCMNim8TMD-1" vertex="1">
                    <mxGeometry x="-8.5" y="250" width="146" height="135" as="geometry"/>
                </mxCell>
                <mxCell id="2OkuZF6dqTFCMNim8TMD-3" value="&lt;p style=&quot;margin: 4px 0px 0px; text-align: center; font-size: 15px;&quot;&gt;&lt;b style=&quot;font-size: 15px;&quot;&gt;QuestionBankModel&lt;/b&gt;&lt;/p&gt;&lt;hr style=&quot;font-size: 15px;&quot;&gt;&lt;p style=&quot;margin: 0px 0px 0px 4px; font-size: 15px;&quot;&gt;- questionBankID: string&lt;/p&gt;&lt;p style=&quot;margin: 0px 0px 0px 4px; font-size: 15px;&quot;&gt;- name: string&lt;/p&gt;&lt;p style=&quot;margin: 0px 0px 0px 4px; font-size: 15px;&quot;&gt;&lt;br style=&quot;font-size: 15px;&quot;&gt;&lt;/p&gt;&lt;hr style=&quot;font-size: 15px;&quot;&gt;&lt;p style=&quot;margin: 0px 0px 0px 4px; font-size: 15px;&quot;&gt;&lt;br style=&quot;font-size: 15px;&quot;&gt;&lt;/p&gt;" style="verticalAlign=top;align=left;overflow=fill;fontSize=15;fontFamily=Helvetica;html=1;" parent="2OkuZF6dqTFCMNim8TMD-1" vertex="1">
                    <mxGeometry x="1413" y="140" width="290" height="80" as="geometry"/>
                </mxCell>
                <mxCell id="13" value="" style="edgeStyle=none;html=1;startArrow=ERone;startFill=0;endArrow=ERmany;endFill=0;fontSize=15;" parent="2OkuZF6dqTFCMNim8TMD-1" source="2OkuZF6dqTFCMNim8TMD-4" target="2OkuZF6dqTFCMNim8TMD-7" edge="1">
                    <mxGeometry relative="1" as="geometry"/>
                </mxCell>
                <mxCell id="2OkuZF6dqTFCMNim8TMD-4" value="&lt;p style=&quot;margin: 4px 0px 0px; text-align: center; font-size: 15px;&quot;&gt;&lt;b style=&quot;font-size: 15px;&quot;&gt;QuestionModel&lt;/b&gt;&lt;/p&gt;&lt;hr style=&quot;font-size: 15px;&quot;&gt;&lt;p style=&quot;margin: 0px 0px 0px 4px; font-size: 15px;&quot;&gt;- questionID: string&lt;/p&gt;&lt;p style=&quot;margin: 0px 0px 0px 4px; font-size: 15px;&quot;&gt;- name: string&lt;/p&gt;&lt;p style=&quot;margin: 0px 0px 0px 4px; font-size: 15px;&quot;&gt;- description: string&lt;/p&gt;&lt;p style=&quot;margin: 0px 0px 0px 4px; font-size: 15px;&quot;&gt;- lastUpdated: string&lt;/p&gt;&lt;p style=&quot;margin: 0px 0px 0px 4px; font-size: 15px;&quot;&gt;- creator: User&lt;/p&gt;&lt;p style=&quot;margin: 0px 0px 0px 4px; font-size: 15px;&quot;&gt;- questionGroupID: string&lt;/p&gt;&lt;p style=&quot;margin: 0px 0px 0px 4px; font-size: 15px;&quot;&gt;&lt;br style=&quot;font-size: 15px;&quot;&gt;&lt;/p&gt;" style="verticalAlign=top;align=left;overflow=fill;fontSize=15;fontFamily=Helvetica;html=1;" parent="2OkuZF6dqTFCMNim8TMD-1" vertex="1">
                    <mxGeometry x="2951" width="180" height="150" as="geometry"/>
                </mxCell>
                <mxCell id="2OkuZF6dqTFCMNim8TMD-5" value="&lt;p style=&quot;margin: 4px 0px 0px; text-align: center; font-size: 15px;&quot;&gt;&lt;b style=&quot;font-size: 15px;&quot;&gt;TestModel&lt;/b&gt;&lt;/p&gt;&lt;hr style=&quot;font-size: 15px;&quot;&gt;&lt;p style=&quot;margin: 0px 0px 0px 4px; font-size: 15px;&quot;&gt;- testID: string&lt;/p&gt;&lt;p style=&quot;margin: 0px 0px 0px 4px; font-size: 15px;&quot;&gt;- name: string&lt;br style=&quot;font-size: 15px;&quot;&gt;&lt;/p&gt;&lt;p style=&quot;margin: 0px 0px 0px 4px; font-size: 15px;&quot;&gt;- description: string&lt;/p&gt;&lt;p style=&quot;margin: 0px 0px 0px 4px; font-size: 15px;&quot;&gt;- lastUpdated: string&lt;/p&gt;&lt;p style=&quot;margin: 0px 0px 0px 4px; font-size: 15px;&quot;&gt;- creatorID: string&lt;/p&gt;&lt;p style=&quot;margin: 0px 0px 0px 4px; font-size: 15px;&quot;&gt;&lt;br style=&quot;font-size: 15px;&quot;&gt;&lt;/p&gt;" style="verticalAlign=top;align=left;overflow=fill;fontSize=15;fontFamily=Helvetica;html=1;" parent="2OkuZF6dqTFCMNim8TMD-1" vertex="1">
                    <mxGeometry x="676.5" y="98" width="270" height="137.5" as="geometry"/>
                </mxCell>
                <mxCell id="2OkuZF6dqTFCMNim8TMD-6" value="&lt;p style=&quot;margin: 4px 0px 0px; text-align: center; font-size: 15px;&quot;&gt;&lt;b style=&quot;font-size: 15px;&quot;&gt;LabelModel&lt;/b&gt;&lt;/p&gt;&lt;hr style=&quot;font-size: 15px;&quot;&gt;&lt;p style=&quot;margin: 0px 0px 0px 4px; font-size: 15px;&quot;&gt;- name: string&lt;/p&gt;&lt;p style=&quot;margin: 0px 0px 0px 4px; font-size: 15px;&quot;&gt;- description: string&lt;/p&gt;&lt;p style=&quot;margin: 0px 0px 0px 4px; font-size: 15px;&quot;&gt;- questionBankID: string&lt;/p&gt;" style="verticalAlign=top;align=left;overflow=fill;fontSize=15;fontFamily=Helvetica;html=1;" parent="2OkuZF6dqTFCMNim8TMD-1" vertex="1">
                    <mxGeometry x="2200.25" y="7.25" width="193.5" height="98" as="geometry"/>
                </mxCell>
                <mxCell id="2OkuZF6dqTFCMNim8TMD-7" value="&lt;p style=&quot;margin: 4px 0px 0px; text-align: center; font-size: 15px;&quot;&gt;&lt;b style=&quot;font-size: 15px;&quot;&gt;OptionModel&lt;/b&gt;&lt;/p&gt;&lt;hr style=&quot;font-size: 15px;&quot;&gt;&lt;p style=&quot;margin: 0px 0px 0px 4px; font-size: 15px;&quot;&gt;- optionID: string&lt;/p&gt;&lt;p style=&quot;margin: 0px 0px 0px 4px; font-size: 15px;&quot;&gt;- description: string&lt;/p&gt;&lt;p style=&quot;margin: 0px 0px 0px 4px; font-size: 15px;&quot;&gt;- isCorrect: bool&lt;/p&gt;&lt;hr style=&quot;font-size: 15px;&quot;&gt;&lt;p style=&quot;margin: 0px 0px 0px 4px; font-size: 15px;&quot;&gt;&lt;br style=&quot;font-size: 15px;&quot;&gt;&lt;/p&gt;" style="verticalAlign=top;align=left;overflow=fill;fontSize=15;fontFamily=Helvetica;html=1;" parent="2OkuZF6dqTFCMNim8TMD-1" vertex="1">
                    <mxGeometry x="3223" y="25.5" width="160" height="99" as="geometry"/>
                </mxCell>
                <mxCell id="2OkuZF6dqTFCMNim8TMD-8" value="&lt;p style=&quot;margin: 4px 0px 0px; text-align: center; font-size: 15px;&quot;&gt;&lt;b style=&quot;font-size: 15px;&quot;&gt;RoleModel&lt;/b&gt;&lt;/p&gt;&lt;hr style=&quot;font-size: 15px;&quot;&gt;&lt;p style=&quot;margin: 0px 0px 0px 4px; font-size: 15px;&quot;&gt;- roleID: string&lt;/p&gt;&lt;p style=&quot;margin: 0px 0px 0px 4px; font-size: 15px;&quot;&gt;- name: string&lt;/p&gt;&lt;hr style=&quot;font-size: 15px;&quot;&gt;&lt;p style=&quot;margin: 0px 0px 0px 4px; font-size: 15px;&quot;&gt;&lt;br style=&quot;font-size: 15px;&quot;&gt;&lt;/p&gt;" style="verticalAlign=top;align=left;overflow=fill;fontSize=15;fontFamily=Helvetica;html=1;" parent="2OkuZF6dqTFCMNim8TMD-1" vertex="1">
                    <mxGeometry x="1310" y="615" width="160" height="78" as="geometry"/>
                </mxCell>
                <mxCell id="2OkuZF6dqTFCMNim8TMD-9" value="&lt;p style=&quot;margin: 4px 0px 0px; text-align: center; font-size: 15px;&quot;&gt;&lt;b style=&quot;font-size: 15px;&quot;&gt;PermissionModel&lt;/b&gt;&lt;/p&gt;&lt;hr style=&quot;font-size: 15px;&quot;&gt;&lt;p style=&quot;margin: 0px 0px 0px 4px; font-size: 15px;&quot;&gt;- permissionID: string&lt;/p&gt;&lt;p style=&quot;margin: 0px 0px 0px 4px; font-size: 15px;&quot;&gt;- name: string&lt;/p&gt;&lt;hr style=&quot;font-size: 15px;&quot;&gt;&lt;p style=&quot;margin: 0px 0px 0px 4px; font-size: 15px;&quot;&gt;&lt;br style=&quot;font-size: 15px;&quot;&gt;&lt;/p&gt;" style="verticalAlign=top;align=left;overflow=fill;fontSize=15;fontFamily=Helvetica;html=1;" parent="2OkuZF6dqTFCMNim8TMD-1" vertex="1">
                    <mxGeometry x="1573" y="612" width="160" height="81" as="geometry"/>
                </mxCell>
                <mxCell id="2OkuZF6dqTFCMNim8TMD-10" value="&lt;p style=&quot;margin: 4px 0px 0px; text-align: center; font-size: 15px;&quot;&gt;&lt;b style=&quot;font-size: 15px;&quot;&gt;QuestionGroupModel&lt;/b&gt;&lt;/p&gt;&lt;hr style=&quot;font-size: 15px;&quot;&gt;&lt;p style=&quot;margin: 0px 0px 0px 4px; font-size: 15px;&quot;&gt;- questionGroupID: string&lt;/p&gt;&lt;p style=&quot;margin: 0px 0px 0px 4px; font-size: 15px;&quot;&gt;- name: string&lt;/p&gt;&lt;p style=&quot;margin: 0px 0px 0px 4px; font-size: 15px;&quot;&gt;- difficulty: string&lt;/p&gt;&lt;p style=&quot;margin: 0px 0px 0px 4px; font-size: 15px;&quot;&gt;&lt;br style=&quot;font-size: 15px;&quot;&gt;&lt;/p&gt;" style="verticalAlign=top;align=left;overflow=fill;fontSize=15;fontFamily=Helvetica;html=1;" parent="2OkuZF6dqTFCMNim8TMD-1" vertex="1">
                    <mxGeometry x="3698.87" y="275" width="200" height="110" as="geometry"/>
                </mxCell>
                <mxCell id="d9vbCOxTA3XUxBiBrLn6-0" value="&lt;p style=&quot;margin: 4px 0px 0px; text-align: center; font-size: 15px;&quot;&gt;&lt;b style=&quot;font-size: 15px;&quot;&gt;UserController&lt;/b&gt;&lt;/p&gt;&lt;hr style=&quot;font-size: 15px;&quot;&gt;&lt;p style=&quot;margin: 0px 0px 0px 4px; font-size: 15px;&quot;&gt;- service: UserService&lt;/p&gt;&lt;p style=&quot;margin: 0px 0px 0px 4px; font-size: 15px;&quot;&gt;&lt;br style=&quot;font-size: 15px;&quot;&gt;&lt;/p&gt;&lt;p style=&quot;margin: 0px 0px 0px 4px; font-size: 15px;&quot;&gt;+ indexUserList(QB: QuestionBankModel): Response&lt;/p&gt;&lt;p style=&quot;margin: 0px 0px 0px 4px; font-size: 15px;&quot;&gt;+ createUserWithRole(QB: QuestionBankModel): Response&lt;/p&gt;&lt;p style=&quot;margin: 0px 0px 0px 4px; font-size: 15px;&quot;&gt;+ storeUserWithRole(request: Request, QB: QuestionBankModel): Response&lt;/p&gt;&lt;p style=&quot;margin: 0px 0px 0px 4px; font-size: 15px;&quot;&gt;+ editUserWithRole(QB: QuestionBankModel, user: UserModel): Response&lt;/p&gt;&lt;p style=&quot;margin: 0px 0px 0px 4px; font-size: 15px;&quot;&gt;+ updateUserWithRole(request: Request, QB: QuestionBankModel, user:UserModel): Response&lt;/p&gt;&lt;p style=&quot;margin: 0px 0px 0px 4px; font-size: 15px;&quot;&gt;+ showUserWithRole(QB: QuestionBankModel, user: UserModel): Response&lt;br style=&quot;font-size: 15px;&quot;&gt;&lt;/p&gt;&lt;p style=&quot;margin: 0px 0px 0px 4px; font-size: 15px;&quot;&gt;+ destroyUserWithRole(QB: QuestionBankModel, user: UserModel): Response&lt;/p&gt;" style="verticalAlign=top;align=left;overflow=fill;fontSize=15;fontFamily=Helvetica;html=1;" parent="2OkuZF6dqTFCMNim8TMD-1" vertex="1">
                    <mxGeometry x="-262" y="-1266" width="653" height="203" as="geometry"/>
                </mxCell>
                <mxCell id="d9vbCOxTA3XUxBiBrLn6-1" value="&lt;p style=&quot;margin: 4px 0px 0px; text-align: center; font-size: 15px;&quot;&gt;&lt;b style=&quot;font-size: 15px;&quot;&gt;UserService&lt;/b&gt;&lt;/p&gt;&lt;hr style=&quot;font-size: 15px;&quot;&gt;&lt;p style=&quot;margin: 0px 0px 0px 4px; font-size: 15px;&quot;&gt;+ findByEmail(mail: string): ?UserModel&lt;/p&gt;&lt;p style=&quot;margin: 0px 0px 0px 4px; font-size: 15px;&quot;&gt;+ findOrFail(key: string, column: string = null): ?UserModel&lt;/p&gt;&lt;p style=&quot;margin: 0px 0px 0px 4px; font-size: 15px;&quot;&gt;&lt;span style=&quot;background-color: initial; font-size: 15px;&quot;&gt;+ getAll(quesBankKeyOrModel,&amp;nbsp;&lt;/span&gt;filters&lt;span style=&quot;background-color: initial; font-size: 15px;&quot;&gt;: Array): List&amp;lt;UserModel&amp;gt;&lt;/span&gt;&lt;br style=&quot;font-size: 15px;&quot;&gt;&lt;/p&gt;&lt;p style=&quot;margin: 0px 0px 0px 4px; font-size: 15px;&quot;&gt;+ getPaginateData(quesBankKeyOrModel, limit: int, filters: Array): List&amp;lt;UserModel&amp;gt;&lt;br style=&quot;font-size: 15px;&quot;&gt;&lt;/p&gt;&lt;p style=&quot;margin: 0px 0px 0px 4px; font-size: 15px;&quot;&gt;+ getUserWithRole(userKeyOrModel): UserModel&lt;/p&gt;&lt;p style=&quot;margin: 0px 0px 0px 4px; font-size: 15px;&quot;&gt;+ createUserWithRole(quesBankKeyOrModel,validatedData: Array&amp;lt;Key,Val&amp;gt;): UserModel&lt;br style=&quot;font-size: 15px;&quot;&gt;&lt;/p&gt;&lt;p style=&quot;margin: 0px 0px 0px 4px; font-size: 15px;&quot;&gt;+ updateUserWithRole(userKeyOrModel,validatedData: Array&amp;lt;Key,Val&amp;gt;): void&lt;br style=&quot;font-size: 15px;&quot;&gt;&lt;/p&gt;&lt;p style=&quot;margin: 0px 0px 0px 4px; font-size: 15px;&quot;&gt;+ deleteUserWithRole(userKeyOrModel): void&lt;/p&gt;" style="verticalAlign=top;align=left;overflow=fill;fontSize=15;fontFamily=Helvetica;html=1;" parent="2OkuZF6dqTFCMNim8TMD-1" vertex="1">
                    <mxGeometry x="-240" y="-464" width="610" height="190" as="geometry"/>
                </mxCell>
                <mxCell id="d9vbCOxTA3XUxBiBrLn6-2" value="&lt;p style=&quot;margin: 4px 0px 0px; text-align: center; font-size: 15px;&quot;&gt;&lt;b style=&quot;font-size: 15px;&quot;&gt;QuestionBankController&lt;/b&gt;&lt;/p&gt;&lt;hr style=&quot;font-size: 15px;&quot;&gt;&lt;p style=&quot;margin: 0px 0px 0px 4px; font-size: 15px;&quot;&gt;- QBservice:&amp;nbsp;&lt;span style=&quot;text-align: center; font-size: 15px;&quot;&gt;QuestionBank&lt;/span&gt;Service&lt;/p&gt;&lt;p style=&quot;margin: 0px 0px 0px 4px; font-size: 15px;&quot;&gt;- userService: UserService&lt;/p&gt;&lt;hr style=&quot;font-size: 15px;&quot;&gt;&lt;p style=&quot;margin: 0px 0px 0px 4px; font-size: 15px;&quot;&gt;+ indexQBList(): Response&lt;/p&gt;&lt;p style=&quot;margin: 0px 0px 0px 4px; font-size: 15px;&quot;&gt;+ createQB(request: Request): Response&lt;/p&gt;&lt;p style=&quot;margin: 0px 0px 0px 4px; font-size: 15px;&quot;&gt;+ storeQB(request: Request): Response&lt;/p&gt;&lt;p style=&quot;margin: 0px 0px 0px 4px; font-size: 15px;&quot;&gt;+ editQB(QB: QuestionBankModel): Response&lt;/p&gt;&lt;p style=&quot;margin: 0px 0px 0px 4px; font-size: 15px;&quot;&gt;+ updateQB(request: Request, QB: QuestionBankModel): Response&lt;/p&gt;&lt;p style=&quot;margin: 0px 0px 0px 4px; font-size: 15px;&quot;&gt;+ showQB(QB: QuestionBankModel): Response&lt;br style=&quot;font-size: 15px;&quot;&gt;&lt;/p&gt;&lt;p style=&quot;margin: 0px 0px 0px 4px; font-size: 15px;&quot;&gt;+ destroyQB(QB: QuestionBankModel): Response&lt;br style=&quot;font-size: 15px;&quot;&gt;&lt;/p&gt;&lt;p style=&quot;margin: 0px 0px 0px 4px; font-size: 15px;&quot;&gt;+ findUser(request: Request): Response&lt;/p&gt;" style="verticalAlign=top;align=left;overflow=fill;fontSize=15;fontFamily=Helvetica;html=1;gradientColor=none;fillColor=default;fillStyle=auto;shadow=0;" parent="2OkuZF6dqTFCMNim8TMD-1" vertex="1">
                    <mxGeometry x="1318" y="-1266" width="480" height="243" as="geometry"/>
                </mxCell>
                <mxCell id="d9vbCOxTA3XUxBiBrLn6-3" value="&lt;p style=&quot;margin: 4px 0px 0px; text-align: center; font-size: 15px;&quot;&gt;&lt;b style=&quot;font-size: 15px;&quot;&gt;QuestionBankService&lt;/b&gt;&lt;/p&gt;&lt;hr style=&quot;font-size: 15px;&quot;&gt;&lt;p style=&quot;margin: 0px 0px 0px 4px; font-size: 15px;&quot;&gt;&lt;br style=&quot;font-size: 15px;&quot;&gt;&lt;/p&gt;&lt;hr style=&quot;font-size: 15px;&quot;&gt;&lt;p style=&quot;margin: 0px 0px 0px 4px; font-size: 15px;&quot;&gt;+ getAll(userKeyOrModel): List&amp;lt;QuestionBankModel&amp;gt;&lt;/p&gt;&lt;p style=&quot;margin: 0px 0px 0px 4px; font-size: 15px;&quot;&gt;+ getPaginateData(userKeyOrModel, limit: int): List&amp;lt;QuestionBankModel&amp;gt;&lt;br style=&quot;font-size: 15px;&quot;&gt;&lt;/p&gt;&lt;p style=&quot;margin: 0px 0px 0px 4px; font-size: 15px;&quot;&gt;+ getQB(quesBankKeyOrModel): QuestionBankModel&lt;br style=&quot;font-size: 15px;&quot;&gt;&lt;/p&gt;&lt;p style=&quot;margin: 0px 0px 0px 4px; font-size: 15px;&quot;&gt;+ findByID(key: string): ?QuestionBankModel&lt;/p&gt;&lt;p style=&quot;margin: 0px 0px 0px 4px; font-size: 15px;&quot;&gt;+ findOrFail(key: string, column: string = null): ?QuestionBankModel&lt;/p&gt;&lt;p style=&quot;margin: 0px 0px 0px 4px; font-size: 15px;&quot;&gt;+ createQB(validatedData: Array&amp;lt;Key,Val&amp;gt;): QuestionBankModel&lt;/p&gt;&lt;p style=&quot;margin: 0px 0px 0px 4px; font-size: 15px;&quot;&gt;+ updateQB(quesBankKeyOrModel, validatedData: Array&amp;lt;Key,Val&amp;gt;): void&lt;/p&gt;&lt;p style=&quot;margin: 0px 0px 0px 4px; font-size: 15px;&quot;&gt;+ deleteQB(quesBankKeyOrModel): void&lt;/p&gt;&lt;p style=&quot;margin: 0px 0px 0px 4px; font-size: 15px;&quot;&gt;&lt;br style=&quot;font-size: 15px;&quot;&gt;&lt;/p&gt;&lt;p style=&quot;margin: 0px 0px 0px 4px; font-size: 15px;&quot;&gt;&lt;br style=&quot;font-size: 15px;&quot;&gt;&lt;/p&gt;" style="verticalAlign=top;align=left;overflow=fill;fontSize=15;fontFamily=Helvetica;html=1;" parent="2OkuZF6dqTFCMNim8TMD-1" vertex="1">
                    <mxGeometry x="1288" y="-464" width="530" height="222" as="geometry"/>
                </mxCell>
                <mxCell id="n3z_orEbSFZSWoOInEBg-8" value="&lt;p style=&quot;margin: 4px 0px 0px; text-align: center; font-size: 15px;&quot;&gt;&lt;b style=&quot;font-size: 15px;&quot;&gt;TestController&lt;/b&gt;&lt;/p&gt;&lt;hr style=&quot;font-size: 15px;&quot;&gt;&lt;p style=&quot;margin: 0px 0px 0px 4px; font-size: 15px;&quot;&gt;- testService: TestService&lt;/p&gt;&lt;p style=&quot;margin: 0px 0px 0px 4px; font-size: 15px;&quot;&gt;- questionService: QuestionService&lt;/p&gt;&lt;p style=&quot;margin: 0px 0px 0px 4px; font-size: 15px;&quot;&gt;&lt;br style=&quot;font-size: 15px;&quot;&gt;&lt;/p&gt;&lt;p style=&quot;margin: 0px 0px 0px 4px; font-size: 15px;&quot;&gt;&lt;span style=&quot;background-color: initial; font-size: 15px;&quot;&gt;+ indexTestList(QB: QuestionBankModel):&amp;nbsp;Response&lt;/span&gt;&lt;br style=&quot;font-size: 15px;&quot;&gt;&lt;/p&gt;&lt;p style=&quot;margin: 0px 0px 0px 4px; font-size: 15px;&quot;&gt;+ createTest(QB: QuestionBankModel): Response&lt;br style=&quot;font-size: 15px;&quot;&gt;&lt;/p&gt;&lt;p style=&quot;margin: 0px 0px 0px 4px; font-size: 15px;&quot;&gt;+ storeTest(request: Request, QB: QuestionBankModel): Response&lt;br style=&quot;font-size: 15px;&quot;&gt;&lt;/p&gt;&lt;p style=&quot;margin: 0px 0px 0px 4px; font-size: 15px;&quot;&gt;+ editTest(QB: QuestionBankModel, Test:&lt;span style=&quot;background-color: initial; font-size: 15px;&quot;&gt;TestModel): Response&lt;/span&gt;&lt;br style=&quot;font-size: 15px;&quot;&gt;&lt;/p&gt;&lt;p style=&quot;margin: 0px 0px 0px 4px; font-size: 15px;&quot;&gt;+ updateTest(request: Request, QB: QuestionBankModel, Test:&lt;span style=&quot;background-color: initial; font-size: 15px;&quot;&gt;TestModel): Response&lt;/span&gt;&lt;/p&gt;&lt;p style=&quot;margin: 0px 0px 0px 4px; font-size: 15px;&quot;&gt;+ showTest(QB: QuestionBankModel,&amp;nbsp;Test:TestModel): Response&lt;span style=&quot;background-color: initial; font-size: 15px;&quot;&gt;&lt;br style=&quot;font-size: 15px;&quot;&gt;&lt;/span&gt;&lt;/p&gt;&lt;p style=&quot;margin: 0px 0px 0px 4px; font-size: 15px;&quot;&gt;+ destroyTest(QB: QuestionBankModel, Test:&lt;span style=&quot;background-color: initial; font-size: 15px;&quot;&gt;TestModel&lt;/span&gt;): Response&lt;/p&gt;&lt;p style=&quot;margin: 0px 0px 0px 4px; font-size: 15px;&quot;&gt;+ exportTest(request: Request): Response&lt;/p&gt;&lt;p style=&quot;margin: 0px 0px 0px 4px; font-size: 15px;&quot;&gt;+ exportTestForm(QB: QuestionBankModel): Response&lt;/p&gt;" style="verticalAlign=top;align=left;overflow=fill;fontSize=15;fontFamily=Helvetica;html=1;" parent="2OkuZF6dqTFCMNim8TMD-1" vertex="1">
                    <mxGeometry x="512" y="-1266" width="599" height="261" as="geometry"/>
                </mxCell>
                <mxCell id="n3z_orEbSFZSWoOInEBg-9" value="&lt;p style=&quot;margin: 4px 0px 0px; text-align: center; font-size: 15px;&quot;&gt;&lt;b style=&quot;font-size: 15px;&quot;&gt;TestService&lt;/b&gt;&lt;/p&gt;&lt;hr style=&quot;font-size: 15px;&quot;&gt;&lt;p style=&quot;margin: 0px 0px 0px 4px; font-size: 15px;&quot;&gt;&lt;br style=&quot;font-size: 15px;&quot;&gt;&lt;/p&gt;&lt;hr style=&quot;font-size: 15px;&quot;&gt;&lt;p style=&quot;margin: 0px 0px 0px 4px; font-size: 15px;&quot;&gt;+ getAll(quesBankKeyOrModel, filters: Array): List&amp;lt;TestModel&amp;gt;&lt;/p&gt;&lt;p style=&quot;margin: 0px 0px 0px 4px; font-size: 15px;&quot;&gt;+ getPaginateData(quesBankKeyOrModel, limit: int, filters: Array): List&amp;lt;TestModel&amp;gt;&lt;br style=&quot;font-size: 15px;&quot;&gt;&lt;/p&gt;&lt;p style=&quot;margin: 0px 0px 0px 4px; font-size: 15px;&quot;&gt;+ getTest(testKeyOrModel): TestModel&lt;/p&gt;&lt;p style=&quot;margin: 0px 0px 0px 4px; font-size: 15px;&quot;&gt;+ createTest(quesBankKeyOrModel,validatedData: Array&amp;lt;Key,Val&amp;gt;): TestModel&lt;br style=&quot;font-size: 15px;&quot;&gt;&lt;/p&gt;&lt;p style=&quot;margin: 0px 0px 0px 4px; font-size: 15px;&quot;&gt;+ updateTest(testKeyOrModel,validatedData: Array&amp;lt;Key,Val&amp;gt;): void&lt;br style=&quot;font-size: 15px;&quot;&gt;&lt;/p&gt;&lt;p style=&quot;margin: 0px 0px 0px 4px; font-size: 15px;&quot;&gt;+ deleteTest(testKeyOrModel): void&lt;/p&gt;&lt;p style=&quot;margin: 0px 0px 0px 4px; font-size: 15px;&quot;&gt;+ exportTest(testKeyOrModel): File&lt;/p&gt;" style="verticalAlign=top;align=left;overflow=fill;fontSize=15;fontFamily=Helvetica;html=1;" parent="2OkuZF6dqTFCMNim8TMD-1" vertex="1">
                    <mxGeometry x="524" y="-464" width="570" height="205" as="geometry"/>
                </mxCell>
                <mxCell id="zOvdfVjMWSjVdS2UzzNI-3" value="Use" style="endArrow=open;endSize=12;dashed=1;html=1;exitX=0.5;exitY=1;exitDx=0;exitDy=0;entryX=0.5;entryY=0;entryDx=0;entryDy=0;fontSize=15;" parent="2OkuZF6dqTFCMNim8TMD-1" source="d9vbCOxTA3XUxBiBrLn6-0" target="d9vbCOxTA3XUxBiBrLn6-1" edge="1">
                    <mxGeometry width="160" relative="1" as="geometry">
                        <mxPoint x="-300" y="-410" as="sourcePoint"/>
                        <mxPoint x="-140" y="-410" as="targetPoint"/>
                    </mxGeometry>
                </mxCell>
                <mxCell id="zOvdfVjMWSjVdS2UzzNI-4" value="Use" style="endArrow=open;endSize=12;dashed=1;html=1;exitX=0.5;exitY=1;exitDx=0;exitDy=0;entryX=0.5;entryY=0;entryDx=0;entryDy=0;fontSize=15;" parent="2OkuZF6dqTFCMNim8TMD-1" source="d9vbCOxTA3XUxBiBrLn6-1" target="2OkuZF6dqTFCMNim8TMD-2" edge="1">
                    <mxGeometry width="160" relative="1" as="geometry">
                        <mxPoint x="-260" y="-300" as="sourcePoint"/>
                        <mxPoint x="-100" y="-300" as="targetPoint"/>
                    </mxGeometry>
                </mxCell>
                <mxCell id="zOvdfVjMWSjVdS2UzzNI-5" value="Use" style="endArrow=open;endSize=12;dashed=1;html=1;exitX=0.5;exitY=1;exitDx=0;exitDy=0;entryX=0.5;entryY=0;entryDx=0;entryDy=0;fontSize=15;" parent="2OkuZF6dqTFCMNim8TMD-1" source="n3z_orEbSFZSWoOInEBg-8" target="n3z_orEbSFZSWoOInEBg-9" edge="1">
                    <mxGeometry width="160" relative="1" as="geometry">
                        <mxPoint x="630" y="-460" as="sourcePoint"/>
                        <mxPoint x="790" y="-460" as="targetPoint"/>
                    </mxGeometry>
                </mxCell>
                <mxCell id="zOvdfVjMWSjVdS2UzzNI-6" value="Use" style="endArrow=open;endSize=12;dashed=1;html=1;exitX=0.5;exitY=1;exitDx=0;exitDy=0;entryX=0.5;entryY=0;entryDx=0;entryDy=0;fontSize=15;" parent="2OkuZF6dqTFCMNim8TMD-1" source="n3z_orEbSFZSWoOInEBg-9" target="2OkuZF6dqTFCMNim8TMD-5" edge="1">
                    <mxGeometry width="160" relative="1" as="geometry">
                        <mxPoint x="60" y="-200" as="sourcePoint"/>
                        <mxPoint x="220" y="-200" as="targetPoint"/>
                    </mxGeometry>
                </mxCell>
                <mxCell id="zOvdfVjMWSjVdS2UzzNI-9" value="Use" style="endArrow=open;endSize=12;dashed=1;html=1;exitX=0.5;exitY=1;exitDx=0;exitDy=0;entryX=0.5;entryY=0;entryDx=0;entryDy=0;fontSize=15;" parent="2OkuZF6dqTFCMNim8TMD-1" source="d9vbCOxTA3XUxBiBrLn6-2" target="d9vbCOxTA3XUxBiBrLn6-3" edge="1">
                    <mxGeometry x="-0.25" width="160" relative="1" as="geometry">
                        <mxPoint x="1000" y="-450" as="sourcePoint"/>
                        <mxPoint x="1160" y="-450" as="targetPoint"/>
                        <mxPoint as="offset"/>
                    </mxGeometry>
                </mxCell>
                <mxCell id="zOvdfVjMWSjVdS2UzzNI-10" value="Use" style="endArrow=open;endSize=12;dashed=1;html=1;exitX=0.5;exitY=1;exitDx=0;exitDy=0;entryX=0.5;entryY=0;entryDx=0;entryDy=0;fontSize=15;" parent="2OkuZF6dqTFCMNim8TMD-1" source="d9vbCOxTA3XUxBiBrLn6-3" target="2OkuZF6dqTFCMNim8TMD-3" edge="1">
                    <mxGeometry width="160" relative="1" as="geometry">
                        <mxPoint x="1000" y="-10" as="sourcePoint"/>
                        <mxPoint x="1160" y="-10" as="targetPoint"/>
                    </mxGeometry>
                </mxCell>
                <mxCell id="V_6a4nZ7BC3NfpDAhWcV-6" value="" style="endArrow=diamondThin;endFill=1;endSize=24;html=1;entryX=1;entryY=0.5;entryDx=0;entryDy=0;exitX=0;exitY=0.5;exitDx=0;exitDy=0;fontSize=15;" parent="2OkuZF6dqTFCMNim8TMD-1" source="2OkuZF6dqTFCMNim8TMD-9" target="2OkuZF6dqTFCMNim8TMD-8" edge="1">
                    <mxGeometry width="160" relative="1" as="geometry">
                        <mxPoint x="1445" y="760" as="sourcePoint"/>
                        <mxPoint x="1605" y="760" as="targetPoint"/>
                    </mxGeometry>
                </mxCell>
                <mxCell id="V_6a4nZ7BC3NfpDAhWcV-14" value="Use" style="endArrow=open;endSize=12;dashed=1;html=1;exitX=0;exitY=1;exitDx=0;exitDy=0;entryX=1;entryY=0;entryDx=0;entryDy=0;fontSize=15;" parent="2OkuZF6dqTFCMNim8TMD-1" source="d9vbCOxTA3XUxBiBrLn6-2" target="d9vbCOxTA3XUxBiBrLn6-1" edge="1">
                    <mxGeometry width="160" relative="1" as="geometry">
                        <mxPoint x="760" y="-560" as="sourcePoint"/>
                        <mxPoint x="920" y="-560" as="targetPoint"/>
                    </mxGeometry>
                </mxCell>
                <mxCell id="IQVSVcBC1YNNi2Ne7M7Z-0" value="&lt;p style=&quot;margin: 4px 0px 0px; text-align: center; font-size: 15px;&quot;&gt;&lt;b style=&quot;font-size: 15px;&quot;&gt;QuestionGroupService&lt;/b&gt;&lt;/p&gt;&lt;hr style=&quot;font-size: 15px;&quot;&gt;&lt;p style=&quot;margin: 0px 0px 0px 4px; font-size: 15px;&quot;&gt;&lt;br style=&quot;font-size: 15px;&quot;&gt;&lt;/p&gt;&lt;hr style=&quot;font-size: 15px;&quot;&gt;&lt;p style=&quot;margin: 0px 0px 0px 4px; font-size: 15px;&quot;&gt;&lt;span style=&quot;background-color: initial; font-size: 15px;&quot;&gt;+ getAll(quesBankKeyOrModel,&amp;nbsp;&lt;/span&gt;filters&lt;span style=&quot;background-color: initial; font-size: 15px;&quot;&gt;: Array): List&amp;lt;QuestionGroupModel&amp;gt;&lt;/span&gt;&lt;br style=&quot;font-size: 15px;&quot;&gt;&lt;/p&gt;&lt;p style=&quot;margin: 0px 0px 0px 4px; font-size: 15px;&quot;&gt;+ getPaginateData(quesBankKeyOrModel, limit: int, filters: Array): List&amp;lt;QuestionGroupModel&amp;gt;&lt;br style=&quot;font-size: 15px;&quot;&gt;&lt;/p&gt;&lt;p style=&quot;margin: 0px 0px 0px 4px; font-size: 15px;&quot;&gt;+ getQuestionGroup(quesKeyOrModel): QuestionGroupModel&lt;/p&gt;&lt;p style=&quot;margin: 0px 0px 0px 4px; font-size: 15px;&quot;&gt;+ findByID(key: string): ?QuestionGroupModel&lt;/p&gt;&lt;p style=&quot;margin: 0px 0px 0px 4px; font-size: 15px;&quot;&gt;+ findOrFail(key: string, column: string = null): ?QuestionGroupModel&lt;/p&gt;&lt;p style=&quot;margin: 0px 0px 0px 4px; font-size: 15px;&quot;&gt;+ createQuestion(quesBankKeyOrModel,validatedData: Array&amp;lt;Key,Val&amp;gt;): QuestionModel&lt;br style=&quot;font-size: 15px;&quot;&gt;&lt;/p&gt;&lt;p style=&quot;margin: 0px 0px 0px 4px; font-size: 15px;&quot;&gt;+ updateQuestion(quesGroupKeyOrModel,validatedData: Array&amp;lt;Key,Val&amp;gt;): void&lt;br style=&quot;font-size: 15px;&quot;&gt;&lt;/p&gt;&lt;p style=&quot;margin: 0px 0px 0px 4px; font-size: 15px;&quot;&gt;+ deleteQuestion(quesGroupKeyOrModel): void&lt;/p&gt;" style="verticalAlign=top;align=left;overflow=fill;fontSize=15;fontFamily=Helvetica;html=1;" parent="2OkuZF6dqTFCMNim8TMD-1" vertex="1">
                    <mxGeometry x="3463" y="-464" width="644" height="225" as="geometry"/>
                </mxCell>
                <mxCell id="IQVSVcBC1YNNi2Ne7M7Z-1" value="&lt;p style=&quot;margin: 4px 0px 0px; text-align: center; font-size: 15px;&quot;&gt;&lt;b style=&quot;font-size: 15px;&quot;&gt;QuestionService&lt;/b&gt;&lt;/p&gt;&lt;hr style=&quot;font-size: 15px;&quot;&gt;&lt;p style=&quot;margin: 0px 0px 0px 4px; font-size: 15px;&quot;&gt;&lt;br style=&quot;font-size: 15px;&quot;&gt;&lt;/p&gt;&lt;hr style=&quot;font-size: 15px;&quot;&gt;&lt;p style=&quot;margin: 0px 0px 0px 4px; font-size: 15px;&quot;&gt;+ getAll(quesBankKeyOrModel, filters: Array): List&amp;lt;QuestionModel&amp;gt;&lt;/p&gt;&lt;p style=&quot;margin: 0px 0px 0px 4px; font-size: 15px;&quot;&gt;&lt;span style=&quot;background-color: initial; font-size: 15px;&quot;&gt;+ getPaginateData(quesBankKeyOrModel, limit: int,&amp;nbsp;&lt;/span&gt;filters&lt;span style=&quot;background-color: initial; font-size: 15px;&quot;&gt;: Array): List&amp;lt;QuestionModel&amp;gt;&lt;/span&gt;&lt;/p&gt;&lt;p style=&quot;margin: 0px 0px 0px 4px; font-size: 15px;&quot;&gt;+ getQuestion(quesKeyOrModel): QuestionModel&lt;/p&gt;&lt;p style=&quot;margin: 0px 0px 0px 4px; font-size: 15px;&quot;&gt;+ findByID(key: string): ?QuestionModel&lt;/p&gt;&lt;p style=&quot;margin: 0px 0px 0px 4px; font-size: 15px;&quot;&gt;+ findOrFail(key: string, column: string = null): ?QuestionModel&lt;br style=&quot;font-size: 15px;&quot;&gt;&lt;/p&gt;&lt;p style=&quot;margin: 0px 0px 0px 4px; font-size: 15px;&quot;&gt;+ createQuestion(quesBankKeyOrModel,validatedData: Array&amp;lt;Key,Val&amp;gt;): QuestionModel&lt;br style=&quot;font-size: 15px;&quot;&gt;&lt;/p&gt;&lt;p style=&quot;margin: 0px 0px 0px 4px; font-size: 15px;&quot;&gt;+ createManyQuestion(quesBankKeyOrModel,validatedData: Array&amp;lt;Key,Val&amp;gt;): List&amp;lt;QuestionModel&amp;gt;&lt;br style=&quot;font-size: 15px;&quot;&gt;&lt;/p&gt;&lt;p style=&quot;margin: 0px 0px 0px 4px; font-size: 15px;&quot;&gt;+ updateQuestion(quesKeyOrModel,validatedData: Array&amp;lt;Key,Val&amp;gt;): void&lt;br style=&quot;font-size: 15px;&quot;&gt;&lt;/p&gt;&lt;p style=&quot;margin: 0px 0px 0px 4px; font-size: 15px;&quot;&gt;+ deleteQuestion(quesKeyOrModel): bool&lt;/p&gt;&lt;p style=&quot;margin: 0px 0px 0px 4px; font-size: 15px;&quot;&gt;+ deleteManyQuestion(quesKeyOrModel): void&lt;br style=&quot;font-size: 15px;&quot;&gt;&lt;/p&gt;&lt;p style=&quot;margin: 0px 0px 0px 4px; font-size: 15px;&quot;&gt;&lt;br style=&quot;font-size: 15px;&quot;&gt;&lt;/p&gt;" style="verticalAlign=top;align=left;overflow=fill;fontSize=15;fontFamily=Helvetica;html=1;" parent="2OkuZF6dqTFCMNim8TMD-1" vertex="1">
                    <mxGeometry x="2701" y="-464" width="680" height="264" as="geometry"/>
                </mxCell>
                <mxCell id="IQVSVcBC1YNNi2Ne7M7Z-2" value="&lt;p style=&quot;margin: 4px 0px 0px; text-align: center; font-size: 15px;&quot;&gt;&lt;b style=&quot;font-size: 15px;&quot;&gt;QuestionGroupController&lt;/b&gt;&lt;/p&gt;&lt;hr style=&quot;font-size: 15px;&quot;&gt;&lt;p style=&quot;margin: 0px 0px 0px 4px; font-size: 15px;&quot;&gt;- QGservice:&amp;nbsp;&lt;span style=&quot;text-align: center; font-size: 15px;&quot;&gt;QuestionGroup&lt;/span&gt;Service&lt;/p&gt;&lt;hr style=&quot;font-size: 15px;&quot;&gt;&lt;p style=&quot;margin: 0px 0px 0px 4px; font-size: 15px;&quot;&gt;+ indexQuestionGroupList(QB: QuestionBankModel): Response&lt;span style=&quot;background-color: initial; font-size: 15px;&quot;&gt;&lt;br style=&quot;font-size: 15px;&quot;&gt;&lt;/span&gt;&lt;/p&gt;&lt;p style=&quot;margin: 0px 0px 0px 4px; font-size: 15px;&quot;&gt;+ createQuestionGroup(QB: QuestionBankModel): Response&lt;br style=&quot;font-size: 15px;&quot;&gt;&lt;/p&gt;&lt;p style=&quot;margin: 0px 0px 0px 4px; font-size: 15px;&quot;&gt;+ storeQuestionGroup(request: Request,QB: QuestionBankModel): Response&lt;br style=&quot;font-size: 15px;&quot;&gt;&lt;/p&gt;&lt;p style=&quot;margin: 0px 0px 0px 4px; font-size: 15px;&quot;&gt;+ editQuestionGroup(QB: QuestionBankModel, QG: QuestionGroupModel): Response&lt;br style=&quot;font-size: 15px;&quot;&gt;&lt;/p&gt;&lt;p style=&quot;margin: 0px 0px 0px 4px; font-size: 15px;&quot;&gt;+ updateQuestionGroup(request: Request,QB: QuestionBankModel, QG: QuestionGroupModel): Response&lt;/p&gt;&lt;p style=&quot;margin: 0px 0px 0px 4px; font-size: 15px;&quot;&gt;+ destroyQuestionGroup(QB: QuestionBankModel, QG: QuestionGroupModel): Response&lt;/p&gt;&lt;p style=&quot;margin: 0px 0px 0px 4px; font-size: 15px;&quot;&gt;+ showQuestionGroup(QB: QuestionBankModel, QG: QuestionGroupModel): Response&lt;/p&gt;&lt;p style=&quot;margin: 0px 0px 0px 4px; font-size: 15px;&quot;&gt;&lt;br style=&quot;font-size: 15px;&quot;&gt;&lt;/p&gt;&lt;p style=&quot;margin: 0px 0px 0px 4px; font-size: 15px;&quot;&gt;&lt;br style=&quot;font-size: 15px;&quot;&gt;&lt;/p&gt;&lt;p style=&quot;margin: 0px 0px 0px 4px; font-size: 15px;&quot;&gt;&lt;span style=&quot;background-color: initial; font-size: 15px;&quot;&gt;&lt;br style=&quot;font-size: 15px;&quot;&gt;&lt;/span&gt;&lt;/p&gt;&lt;p style=&quot;margin: 0px 0px 0px 4px; font-size: 15px;&quot;&gt;&lt;br style=&quot;font-size: 15px;&quot;&gt;&lt;/p&gt;" style="verticalAlign=top;align=left;overflow=fill;fontSize=15;fontFamily=Helvetica;html=1;gradientColor=none;fillColor=default;fillStyle=auto;shadow=0;" parent="2OkuZF6dqTFCMNim8TMD-1" vertex="1">
                    <mxGeometry x="3436.75" y="-1266" width="724.25" height="219" as="geometry"/>
                </mxCell>
                <mxCell id="IQVSVcBC1YNNi2Ne7M7Z-3" value="&lt;p style=&quot;margin: 4px 0px 0px; text-align: center; font-size: 15px;&quot;&gt;&lt;b style=&quot;font-size: 15px;&quot;&gt;QuestionController&lt;/b&gt;&lt;/p&gt;&lt;hr style=&quot;font-size: 15px;&quot;&gt;&lt;p style=&quot;margin: 0px 0px 0px 4px; font-size: 15px;&quot;&gt;- QService:&amp;nbsp;&lt;span style=&quot;text-align: center; font-size: 15px;&quot;&gt;Question&lt;/span&gt;Service&lt;/p&gt;&lt;p style=&quot;margin: 0px 0px 0px 4px; font-size: 15px;&quot;&gt;- LabelService: LabelService&lt;/p&gt;&lt;p style=&quot;margin: 0px 0px 0px 4px; font-size: 15px;&quot;&gt;- QGService: QuestionGroupService&lt;/p&gt;&lt;hr style=&quot;font-size: 15px;&quot;&gt;&lt;p style=&quot;margin: 0px 0px 0px 4px; font-size: 15px;&quot;&gt;+ indexQuestionList(QB: QuestionBankModel):&amp;nbsp;Response&lt;br style=&quot;font-size: 15px;&quot;&gt;&lt;/p&gt;&lt;p style=&quot;margin: 0px 0px 0px 4px; font-size: 15px;&quot;&gt;+ createQuestion(QB: QuestionBankModel): Response&lt;br style=&quot;font-size: 15px;&quot;&gt;&lt;/p&gt;&lt;p style=&quot;margin: 0px 0px 0px 4px; font-size: 15px;&quot;&gt;+ storeQuestion(request: Request, QB: QuestionBankModel): Response&lt;br style=&quot;font-size: 15px;&quot;&gt;&lt;/p&gt;&lt;p style=&quot;margin: 0px 0px 0px 4px; font-size: 15px;&quot;&gt;+ editQuestion(QB: QuestionBankModel, Ques:&lt;span style=&quot;background-color: initial; font-size: 15px;&quot;&gt;QuestionModel): Response&lt;/span&gt;&lt;br style=&quot;font-size: 15px;&quot;&gt;&lt;/p&gt;&lt;p style=&quot;margin: 0px 0px 0px 4px; font-size: 15px;&quot;&gt;+ updateQuestion(request: Request, QB: QuestionBankModel, Ques:&lt;span style=&quot;background-color: initial; font-size: 15px;&quot;&gt;QuestionModel): Response&lt;/span&gt;&lt;/p&gt;&lt;p style=&quot;margin: 0px 0px 0px 4px; font-size: 15px;&quot;&gt;+ showQuestion(QB: QuestionBankModel,&amp;nbsp;Ques:QuestionModel): Response&lt;span style=&quot;background-color: initial; font-size: 15px;&quot;&gt;&lt;br style=&quot;font-size: 15px;&quot;&gt;&lt;/span&gt;&lt;/p&gt;&lt;p style=&quot;margin: 0px 0px 0px 4px; font-size: 15px;&quot;&gt;+ destroyQuestion(QB: QuestionBankModel,Ques:&lt;span style=&quot;background-color: initial; font-size: 15px;&quot;&gt;QuestionModel&lt;/span&gt;): Response&lt;/p&gt;&lt;p style=&quot;margin: 0px 0px 0px 4px; font-size: 15px;&quot;&gt;+ findQuestion(request: Request, QB: QuestionBankModel): Response&lt;/p&gt;" style="verticalAlign=top;align=left;overflow=fill;fontSize=15;fontFamily=Helvetica;html=1;gradientColor=none;fillColor=default;fillStyle=auto;shadow=0;" parent="2OkuZF6dqTFCMNim8TMD-1" vertex="1">
                    <mxGeometry x="2702" y="-1266" width="700" height="257" as="geometry"/>
                </mxCell>
                <mxCell id="0" value="Use" style="endArrow=open;endSize=12;dashed=1;html=1;exitX=0.5;exitY=1;exitDx=0;exitDy=0;entryX=0.5;entryY=0;entryDx=0;entryDy=0;fontSize=15;" parent="2OkuZF6dqTFCMNim8TMD-1" source="IQVSVcBC1YNNi2Ne7M7Z-3" target="IQVSVcBC1YNNi2Ne7M7Z-1" edge="1">
                    <mxGeometry width="160" relative="1" as="geometry">
                        <mxPoint x="2983" y="-650" as="sourcePoint"/>
                        <mxPoint x="3143" y="-650" as="targetPoint"/>
                    </mxGeometry>
                </mxCell>
                <mxCell id="2" value="Use" style="endArrow=open;endSize=12;dashed=1;html=1;exitX=0.5;exitY=1;exitDx=0;exitDy=0;entryX=0.5;entryY=0;entryDx=0;entryDy=0;fontSize=15;" parent="2OkuZF6dqTFCMNim8TMD-1" source="IQVSVcBC1YNNi2Ne7M7Z-2" target="IQVSVcBC1YNNi2Ne7M7Z-0" edge="1">
                    <mxGeometry x="-0.25" width="160" relative="1" as="geometry">
                        <mxPoint x="3753" y="-650" as="sourcePoint"/>
                        <mxPoint x="3753" y="-510" as="targetPoint"/>
                        <mxPoint as="offset"/>
                    </mxGeometry>
                </mxCell>
                <mxCell id="4" value="Use" style="endArrow=open;endSize=12;dashed=1;html=1;exitX=1;exitY=1;exitDx=0;exitDy=0;entryX=0;entryY=0;entryDx=0;entryDy=0;fontSize=15;" parent="2OkuZF6dqTFCMNim8TMD-1" source="n3z_orEbSFZSWoOInEBg-8" target="IQVSVcBC1YNNi2Ne7M7Z-1" edge="1">
                    <mxGeometry width="160" relative="1" as="geometry">
                        <mxPoint x="350" y="-570" as="sourcePoint"/>
                        <mxPoint x="970" y="-410" as="targetPoint"/>
                    </mxGeometry>
                </mxCell>
                <mxCell id="6" value="Use" style="endArrow=open;endSize=12;dashed=1;html=1;exitX=0.5;exitY=1;exitDx=0;exitDy=0;entryX=0.5;entryY=0;entryDx=0;entryDy=0;fontSize=15;" parent="2OkuZF6dqTFCMNim8TMD-1" source="IQVSVcBC1YNNi2Ne7M7Z-1" target="2OkuZF6dqTFCMNim8TMD-4" edge="1">
                    <mxGeometry width="160" relative="1" as="geometry">
                        <mxPoint x="3013" y="-200.00000000000023" as="sourcePoint"/>
                        <mxPoint x="3013" y="-10.000000000000227" as="targetPoint"/>
                    </mxGeometry>
                </mxCell>
                <mxCell id="8" value="Use" style="endArrow=open;endSize=12;dashed=1;html=1;exitX=0.5;exitY=1;exitDx=0;exitDy=0;entryX=0.5;entryY=0;entryDx=0;entryDy=0;fontSize=15;" parent="2OkuZF6dqTFCMNim8TMD-1" source="IQVSVcBC1YNNi2Ne7M7Z-0" target="2OkuZF6dqTFCMNim8TMD-10" edge="1">
                    <mxGeometry width="160" relative="1" as="geometry">
                        <mxPoint x="2958" y="-289.9999999999998" as="sourcePoint"/>
                        <mxPoint x="2973" y="9.999999999999773" as="targetPoint"/>
                    </mxGeometry>
                </mxCell>
                <mxCell id="17" value="1" style="text;html=1;strokeColor=none;fillColor=none;align=center;verticalAlign=middle;whiteSpace=wrap;rounded=0;fontSize=15;" parent="2OkuZF6dqTFCMNim8TMD-1" vertex="1">
                    <mxGeometry x="3106" y="48" width="60" height="30" as="geometry"/>
                </mxCell>
                <mxCell id="18" value="" style="endArrow=ERoneToMany;html=1;exitX=1;exitY=1;exitDx=0;exitDy=0;entryX=0;entryY=0;entryDx=0;entryDy=0;startArrow=ERoneToMany;startFill=0;endFill=0;fontSize=15;" parent="2OkuZF6dqTFCMNim8TMD-1" source="2OkuZF6dqTFCMNim8TMD-2" target="2OkuZF6dqTFCMNim8TMD-8" edge="1">
                    <mxGeometry width="50" height="50" relative="1" as="geometry">
                        <mxPoint x="340" y="700" as="sourcePoint"/>
                        <mxPoint x="390" y="650" as="targetPoint"/>
                    </mxGeometry>
                </mxCell>
                <mxCell id="19" value="" style="endArrow=ERoneToMany;html=1;entryX=0.5;entryY=1;entryDx=0;entryDy=0;exitX=0.5;exitY=0;exitDx=0;exitDy=0;startArrow=ERoneToMany;startFill=0;endFill=0;fontSize=15;" parent="2OkuZF6dqTFCMNim8TMD-1" source="2OkuZF6dqTFCMNim8TMD-8" target="2OkuZF6dqTFCMNim8TMD-3" edge="1">
                    <mxGeometry width="50" height="50" relative="1" as="geometry">
                        <mxPoint x="1260" y="790" as="sourcePoint"/>
                        <mxPoint x="1020" y="380" as="targetPoint"/>
                    </mxGeometry>
                </mxCell>
                <mxCell id="20" value="n" style="text;html=1;strokeColor=none;fillColor=none;align=center;verticalAlign=middle;whiteSpace=wrap;rounded=0;fontSize=15;" parent="2OkuZF6dqTFCMNim8TMD-1" vertex="1">
                    <mxGeometry x="1267" y="585" width="60" height="30" as="geometry"/>
                </mxCell>
                <mxCell id="22" value="n" style="text;html=1;strokeColor=none;fillColor=none;align=center;verticalAlign=middle;whiteSpace=wrap;rounded=0;fontSize=15;" parent="2OkuZF6dqTFCMNim8TMD-1" vertex="1">
                    <mxGeometry x="122" y="361" width="60" height="30" as="geometry"/>
                </mxCell>
                <mxCell id="25" value="n" style="text;html=1;strokeColor=none;fillColor=none;align=center;verticalAlign=middle;whiteSpace=wrap;rounded=0;fontSize=15;" parent="2OkuZF6dqTFCMNim8TMD-1" vertex="1">
                    <mxGeometry x="1367" y="196" width="60" height="30" as="geometry"/>
                </mxCell>
                <mxCell id="26" value="n" style="text;html=1;strokeColor=none;fillColor=none;align=center;verticalAlign=middle;whiteSpace=wrap;rounded=0;fontSize=15;" parent="2OkuZF6dqTFCMNim8TMD-1" vertex="1">
                    <mxGeometry x="1378" y="589" width="60" height="30" as="geometry"/>
                </mxCell>
                <mxCell id="28" value="" style="endArrow=ERoneToMany;html=1;exitX=1;exitY=0.5;exitDx=0;exitDy=0;entryX=0;entryY=0.5;entryDx=0;entryDy=0;endFill=0;startArrow=ERoneToMany;startFill=0;fontSize=15;" parent="2OkuZF6dqTFCMNim8TMD-1" source="2OkuZF6dqTFCMNim8TMD-3" target="2OkuZF6dqTFCMNim8TMD-4" edge="1">
                    <mxGeometry width="50" height="50" relative="1" as="geometry">
                        <mxPoint x="1780" y="180" as="sourcePoint"/>
                        <mxPoint x="1830" y="130" as="targetPoint"/>
                    </mxGeometry>
                </mxCell>
                <mxCell id="29" value="n" style="text;html=1;strokeColor=none;fillColor=none;align=center;verticalAlign=middle;whiteSpace=wrap;rounded=0;fontSize=15;" parent="2OkuZF6dqTFCMNim8TMD-1" vertex="1">
                    <mxGeometry x="1681" y="110" width="60" height="30" as="geometry"/>
                </mxCell>
                <mxCell id="30" value="n" style="text;html=1;strokeColor=none;fillColor=none;align=center;verticalAlign=middle;whiteSpace=wrap;rounded=0;fontSize=15;" parent="2OkuZF6dqTFCMNim8TMD-1" vertex="1">
                    <mxGeometry x="2905" y="50" width="60" height="30" as="geometry"/>
                </mxCell>
                <mxCell id="31" value="" style="endArrow=ERone;html=1;entryX=0;entryY=0.5;entryDx=0;entryDy=0;endFill=0;startArrow=ERoneToMany;startFill=0;exitX=0.5;exitY=1;exitDx=0;exitDy=0;fontSize=15;" parent="2OkuZF6dqTFCMNim8TMD-1" source="2OkuZF6dqTFCMNim8TMD-4" target="2OkuZF6dqTFCMNim8TMD-10" edge="1">
                    <mxGeometry width="50" height="50" relative="1" as="geometry">
                        <mxPoint x="2933" y="200" as="sourcePoint"/>
                        <mxPoint x="3313" y="30" as="targetPoint"/>
                    </mxGeometry>
                </mxCell>
                <mxCell id="32" value="n" style="text;html=1;strokeColor=none;fillColor=none;align=center;verticalAlign=middle;whiteSpace=wrap;rounded=0;fontSize=15;" parent="2OkuZF6dqTFCMNim8TMD-1" vertex="1">
                    <mxGeometry x="3183" y="48" width="60" height="30" as="geometry"/>
                </mxCell>
                <mxCell id="33" value="1" style="text;html=1;strokeColor=none;fillColor=none;align=center;verticalAlign=middle;whiteSpace=wrap;rounded=0;fontSize=15;" parent="2OkuZF6dqTFCMNim8TMD-1" vertex="1">
                    <mxGeometry x="3660" y="302.5" width="60" height="30" as="geometry"/>
                </mxCell>
                <mxCell id="15" value="n" style="text;html=1;strokeColor=none;fillColor=none;align=center;verticalAlign=middle;whiteSpace=wrap;rounded=0;fontSize=15;" parent="2OkuZF6dqTFCMNim8TMD-1" vertex="1">
                    <mxGeometry x="3011" y="147" width="60" height="30" as="geometry"/>
                </mxCell>
                <mxCell id="36" value="" style="endArrow=ERoneToMany;html=1;exitX=1;exitY=1;exitDx=0;exitDy=0;entryX=0;entryY=1;entryDx=0;entryDy=0;endFill=0;startArrow=ERoneToMany;startFill=0;fontSize=15;" parent="2OkuZF6dqTFCMNim8TMD-1" source="2OkuZF6dqTFCMNim8TMD-3" target="2OkuZF6dqTFCMNim8TMD-10" edge="1">
                    <mxGeometry width="50" height="50" relative="1" as="geometry">
                        <mxPoint x="1720" y="430" as="sourcePoint"/>
                        <mxPoint x="1770" y="380" as="targetPoint"/>
                    </mxGeometry>
                </mxCell>
                <mxCell id="37" value="" style="endArrow=ERone;html=1;exitX=1;exitY=0.5;exitDx=0;exitDy=0;entryX=0;entryY=0.5;entryDx=0;entryDy=0;endFill=0;startArrow=ERoneToMany;startFill=0;fontSize=15;" parent="2OkuZF6dqTFCMNim8TMD-1" source="2OkuZF6dqTFCMNim8TMD-5" target="2OkuZF6dqTFCMNim8TMD-3" edge="1">
                    <mxGeometry width="50" height="50" relative="1" as="geometry">
                        <mxPoint x="910" y="210" as="sourcePoint"/>
                        <mxPoint x="1040" y="110" as="targetPoint"/>
                    </mxGeometry>
                </mxCell>
                <mxCell id="38" value="n" style="text;html=1;strokeColor=none;fillColor=none;align=center;verticalAlign=middle;whiteSpace=wrap;rounded=0;fontSize=15;" parent="2OkuZF6dqTFCMNim8TMD-1" vertex="1">
                    <mxGeometry x="3660" y="358" width="60" height="30" as="geometry"/>
                </mxCell>
                <mxCell id="39" value="n" style="text;html=1;strokeColor=none;fillColor=none;align=center;verticalAlign=middle;whiteSpace=wrap;rounded=0;fontSize=15;" parent="2OkuZF6dqTFCMNim8TMD-1" vertex="1">
                    <mxGeometry x="1537" y="226" width="60" height="30" as="geometry"/>
                </mxCell>
                <mxCell id="41" value="1" style="text;html=1;strokeColor=none;fillColor=none;align=center;verticalAlign=middle;whiteSpace=wrap;rounded=0;fontSize=15;" parent="2OkuZF6dqTFCMNim8TMD-1" vertex="1">
                    <mxGeometry x="1367" y="150" width="60" height="30" as="geometry"/>
                </mxCell>
                <mxCell id="42" value="n" style="text;html=1;strokeColor=none;fillColor=none;align=center;verticalAlign=middle;whiteSpace=wrap;rounded=0;fontSize=15;" parent="2OkuZF6dqTFCMNim8TMD-1" vertex="1">
                    <mxGeometry x="930" y="140" width="60" height="30" as="geometry"/>
                </mxCell>
                <mxCell id="43" value="" style="endArrow=ERmany;html=1;exitX=1;exitY=0.5;exitDx=0;exitDy=0;entryX=0;entryY=0.5;entryDx=0;entryDy=0;endFill=0;startArrow=ERone;startFill=0;fontSize=15;" parent="2OkuZF6dqTFCMNim8TMD-1" source="2OkuZF6dqTFCMNim8TMD-2" target="2OkuZF6dqTFCMNim8TMD-5" edge="1">
                    <mxGeometry width="50" height="50" relative="1" as="geometry">
                        <mxPoint x="200" y="280" as="sourcePoint"/>
                        <mxPoint x="250" y="230" as="targetPoint"/>
                    </mxGeometry>
                </mxCell>
                <mxCell id="45" value="n" style="text;html=1;strokeColor=none;fillColor=none;align=center;verticalAlign=middle;whiteSpace=wrap;rounded=0;fontSize=15;" parent="2OkuZF6dqTFCMNim8TMD-1" vertex="1">
                    <mxGeometry x="635" y="140" width="60" height="30" as="geometry"/>
                </mxCell>
                <mxCell id="46" value="1" style="text;html=1;strokeColor=none;fillColor=none;align=center;verticalAlign=middle;whiteSpace=wrap;rounded=0;fontSize=15;" parent="2OkuZF6dqTFCMNim8TMD-1" vertex="1">
                    <mxGeometry x="114" y="286" width="60" height="30" as="geometry"/>
                </mxCell>
                <mxCell id="47" value="" style="endArrow=ERmany;html=1;exitX=1;exitY=0.75;exitDx=0;exitDy=0;entryX=0;entryY=1;entryDx=0;entryDy=0;endFill=0;startArrow=ERoneToMany;startFill=0;fontSize=15;" parent="2OkuZF6dqTFCMNim8TMD-1" source="2OkuZF6dqTFCMNim8TMD-2" target="2OkuZF6dqTFCMNim8TMD-3" edge="1">
                    <mxGeometry width="50" height="50" relative="1" as="geometry">
                        <mxPoint x="390" y="390" as="sourcePoint"/>
                        <mxPoint x="440" y="340" as="targetPoint"/>
                    </mxGeometry>
                </mxCell>
                <mxCell id="48" value="n" style="text;html=1;strokeColor=none;fillColor=none;align=center;verticalAlign=middle;whiteSpace=wrap;rounded=0;fontSize=15;" parent="2OkuZF6dqTFCMNim8TMD-1" vertex="1">
                    <mxGeometry x="1681" y="196" width="60" height="30" as="geometry"/>
                </mxCell>
                <mxCell id="51" value="n" style="text;html=1;strokeColor=none;fillColor=none;align=center;verticalAlign=middle;whiteSpace=wrap;rounded=0;fontSize=15;" parent="2OkuZF6dqTFCMNim8TMD-1" vertex="1">
                    <mxGeometry x="119" y="325" width="60" height="30" as="geometry"/>
                </mxCell>
                <mxCell id="53" value="&lt;p style=&quot;margin: 4px 0px 0px; text-align: center; font-size: 15px;&quot;&gt;&lt;b style=&quot;font-size: 15px;&quot;&gt;LabelService&lt;/b&gt;&lt;/p&gt;&lt;hr style=&quot;font-size: 15px;&quot;&gt;&lt;p style=&quot;margin: 0px 0px 0px 4px; font-size: 15px;&quot;&gt;&lt;br style=&quot;font-size: 15px;&quot;&gt;&lt;/p&gt;&lt;hr style=&quot;font-size: 15px;&quot;&gt;&lt;p style=&quot;margin: 0px 0px 0px 4px; font-size: 15px;&quot;&gt;+ getAll(quesBankKeyOrModel): List&amp;lt;LabelModel&amp;gt;&lt;/p&gt;&lt;p style=&quot;margin: 0px 0px 0px 4px; font-size: 15px;&quot;&gt;+ getPaginateData(quesBankKeyOrModel, limit: int): List&amp;lt;LabelModel&amp;gt;&lt;br style=&quot;font-size: 15px;&quot;&gt;&lt;/p&gt;&lt;p style=&quot;margin: 0px 0px 0px 4px; font-size: 15px;&quot;&gt;+ getLabel(labelKeyOrModel): LabelModel&lt;/p&gt;&lt;p style=&quot;margin: 0px 0px 0px 4px; font-size: 15px;&quot;&gt;+ createLabel(quesBankKeyOrModel,validatedData: Array&amp;lt;Key,Val&amp;gt;): LabelModel&lt;br style=&quot;font-size: 15px;&quot;&gt;&lt;/p&gt;&lt;p style=&quot;margin: 0px 0px 0px 4px; font-size: 15px;&quot;&gt;+ updateLabel(labelKeyOrModel,validatedData: Array&amp;lt;Key,Val&amp;gt;): void&lt;br style=&quot;font-size: 15px;&quot;&gt;&lt;/p&gt;&lt;p style=&quot;margin: 0px 0px 0px 4px; font-size: 15px;&quot;&gt;+ deleteLabel(labelKeyOrModel): void&lt;/p&gt;" style="verticalAlign=top;align=left;overflow=fill;fontSize=15;fontFamily=Helvetica;html=1;" parent="2OkuZF6dqTFCMNim8TMD-1" vertex="1">
                    <mxGeometry x="2018" y="-464" width="558" height="192" as="geometry"/>
                </mxCell>
                <mxCell id="54" value="&lt;p style=&quot;margin: 4px 0px 0px; text-align: center; font-size: 15px;&quot;&gt;&lt;b style=&quot;font-size: 15px;&quot;&gt;LabelController&lt;/b&gt;&lt;/p&gt;&lt;hr style=&quot;font-size: 15px;&quot;&gt;&lt;p style=&quot;margin: 0px 0px 0px 4px; font-size: 15px;&quot;&gt;&lt;br style=&quot;font-size: 15px;&quot;&gt;&lt;/p&gt;&lt;hr style=&quot;font-size: 15px;&quot;&gt;&lt;p style=&quot;margin: 0px 0px 0px 4px; font-size: 15px;&quot;&gt;&lt;span style=&quot;background-color: initial; font-size: 15px;&quot;&gt;+ indexLabelList(QB: QuestionBankModel):&amp;nbsp;Response&lt;/span&gt;&lt;br style=&quot;font-size: 15px;&quot;&gt;&lt;/p&gt;&lt;p style=&quot;margin: 0px 0px 0px 4px; font-size: 15px;&quot;&gt;+ createLabel(QB: QuestionBankModel): Response&lt;br style=&quot;font-size: 15px;&quot;&gt;&lt;/p&gt;&lt;p style=&quot;margin: 0px 0px 0px 4px; font-size: 15px;&quot;&gt;+ storeLabel(request: Request, QB: QuestionBankModel): Response&lt;br style=&quot;font-size: 15px;&quot;&gt;&lt;/p&gt;&lt;p style=&quot;margin: 0px 0px 0px 4px; font-size: 15px;&quot;&gt;+ editLabel(QB: QuestionBankModel, Label:&lt;span style=&quot;background-color: initial; font-size: 15px;&quot;&gt;LabelModel&lt;/span&gt;&lt;span style=&quot;background-color: initial; font-size: 15px;&quot;&gt;): Response&lt;/span&gt;&lt;br style=&quot;font-size: 15px;&quot;&gt;&lt;/p&gt;&lt;p style=&quot;margin: 0px 0px 0px 4px; font-size: 15px;&quot;&gt;+ updateLabel(request: Request, QB: QuestionBankModel, Label:&lt;span style=&quot;background-color: initial; font-size: 15px;&quot;&gt;LabelModel&lt;/span&gt;&lt;span style=&quot;background-color: initial; font-size: 15px;&quot;&gt;): Response&lt;/span&gt;&lt;/p&gt;&lt;p style=&quot;margin: 0px 0px 0px 4px; font-size: 15px;&quot;&gt;+ showLabel(QB: QuestionBankModel, Label:&lt;span style=&quot;background-color: initial; font-size: 15px;&quot;&gt;LabelModel&lt;/span&gt;): Response&lt;span style=&quot;background-color: initial; font-size: 15px;&quot;&gt;&lt;br style=&quot;font-size: 15px;&quot;&gt;&lt;/span&gt;&lt;/p&gt;&lt;p style=&quot;margin: 0px 0px 0px 4px; font-size: 15px;&quot;&gt;+ destroyLabel(QB: QuestionBankModel,Label:&lt;span style=&quot;background-color: initial; font-size: 15px;&quot;&gt;LabelModel&lt;/span&gt;): Response&lt;/p&gt;" style="verticalAlign=top;align=left;overflow=fill;fontSize=15;fontFamily=Helvetica;html=1;" parent="2OkuZF6dqTFCMNim8TMD-1" vertex="1">
                    <mxGeometry x="1998" y="-1266" width="615" height="202" as="geometry"/>
                </mxCell>
                <mxCell id="55" value="Use" style="endArrow=open;endSize=12;dashed=1;html=1;exitX=0.5;exitY=1;exitDx=0;exitDy=0;entryX=0.5;entryY=0;entryDx=0;entryDy=0;fontSize=15;" parent="2OkuZF6dqTFCMNim8TMD-1" source="54" target="53" edge="1">
                    <mxGeometry width="160" relative="1" as="geometry">
                        <mxPoint x="958" y="-529" as="sourcePoint"/>
                        <mxPoint x="3923" y="-222" as="targetPoint"/>
                    </mxGeometry>
                </mxCell>
                <mxCell id="56" value="Use" style="endArrow=open;endSize=12;dashed=1;html=1;exitX=0.5;exitY=1;exitDx=0;exitDy=0;entryX=0.5;entryY=0;entryDx=0;entryDy=0;fontSize=15;" parent="2OkuZF6dqTFCMNim8TMD-1" source="53" target="2OkuZF6dqTFCMNim8TMD-6" edge="1">
                    <mxGeometry width="160" relative="1" as="geometry">
                        <mxPoint x="1400" y="-40" as="sourcePoint"/>
                        <mxPoint x="1400" y="150" as="targetPoint"/>
                    </mxGeometry>
                </mxCell>
                <mxCell id="59" value="n" style="text;html=1;strokeColor=none;fillColor=none;align=center;verticalAlign=middle;whiteSpace=wrap;rounded=0;fontSize=15;" parent="2OkuZF6dqTFCMNim8TMD-1" vertex="1">
                    <mxGeometry x="2160" y="29" width="60" height="30" as="geometry"/>
                </mxCell>
                <mxCell id="57" value="" style="endArrow=ERoneToMany;html=1;exitX=1;exitY=0;exitDx=0;exitDy=0;entryX=0;entryY=0.5;entryDx=0;entryDy=0;endFill=0;startArrow=ERoneToMany;startFill=0;fontSize=15;" parent="2OkuZF6dqTFCMNim8TMD-1" source="2OkuZF6dqTFCMNim8TMD-3" target="2OkuZF6dqTFCMNim8TMD-6" edge="1">
                    <mxGeometry width="50" height="50" relative="1" as="geometry">
                        <mxPoint x="1741" y="118" as="sourcePoint"/>
                        <mxPoint x="1791" y="68" as="targetPoint"/>
                    </mxGeometry>
                </mxCell>
                <mxCell id="58" value="n" style="text;html=1;strokeColor=none;fillColor=none;align=center;verticalAlign=middle;whiteSpace=wrap;rounded=0;fontSize=15;" parent="2OkuZF6dqTFCMNim8TMD-1" vertex="1">
                    <mxGeometry x="1681" y="151.75" width="60" height="30" as="geometry"/>
                </mxCell>
                <mxCell id="64" value="&lt;font style=&quot;font-size: 150px;&quot;&gt;Controller&lt;/font&gt;" style="text;html=1;strokeColor=none;fillColor=none;align=center;verticalAlign=middle;whiteSpace=wrap;rounded=0;" parent="2OkuZF6dqTFCMNim8TMD-1" vertex="1">
                    <mxGeometry x="-968" y="-1228.5" width="685" height="227" as="geometry"/>
                </mxCell>
                <mxCell id="65" value="&lt;font style=&quot;font-size: 150px;&quot;&gt;Service&lt;/font&gt;" style="text;html=1;strokeColor=none;fillColor=none;align=center;verticalAlign=middle;whiteSpace=wrap;rounded=0;" parent="2OkuZF6dqTFCMNim8TMD-1" vertex="1">
                    <mxGeometry x="-980" y="-492" width="685" height="227" as="geometry"/>
                </mxCell>
                <mxCell id="66" value="&lt;font style=&quot;font-size: 150px;&quot;&gt;Model&lt;/font&gt;" style="text;html=1;strokeColor=none;fillColor=none;align=center;verticalAlign=middle;whiteSpace=wrap;rounded=0;" parent="2OkuZF6dqTFCMNim8TMD-1" vertex="1">
                    <mxGeometry x="-980" y="170" width="685" height="227" as="geometry"/>
                </mxCell>
                <mxCell id="67" value="Use" style="endArrow=open;endSize=12;dashed=1;html=1;exitX=0;exitY=1;exitDx=0;exitDy=0;entryX=1;entryY=0;entryDx=0;entryDy=0;fontSize=15;" parent="2OkuZF6dqTFCMNim8TMD-1" source="IQVSVcBC1YNNi2Ne7M7Z-3" target="53" edge="1">
                    <mxGeometry width="160" relative="1" as="geometry">
                        <mxPoint x="2958" y="-1007.9999999999998" as="sourcePoint"/>
                        <mxPoint x="2975" y="-445" as="targetPoint"/>
                    </mxGeometry>
                </mxCell>
                <mxCell id="68" value="Use" style="endArrow=open;endSize=12;dashed=1;html=1;exitX=1;exitY=1;exitDx=0;exitDy=0;entryX=0;entryY=0;entryDx=0;entryDy=0;fontSize=15;" parent="2OkuZF6dqTFCMNim8TMD-1" source="IQVSVcBC1YNNi2Ne7M7Z-3" target="IQVSVcBC1YNNi2Ne7M7Z-0" edge="1">
                    <mxGeometry width="160" relative="1" as="geometry">
                        <mxPoint x="2608" y="-1007.9999999999998" as="sourcePoint"/>
                        <mxPoint x="2435" y="-445" as="targetPoint"/>
                    </mxGeometry>
                </mxCell>
            </root>
        </mxGraphModel>
    </diagram>
    <diagram id="yaPn2xocqwZtk-ihi1OX" name="Page-1">
        <mxGraphModel dx="2350" dy="1965" grid="1" gridSize="10" guides="1" tooltips="1" connect="1" arrows="1" fold="1" page="1" pageScale="1" pageWidth="850" pageHeight="1100" math="0" shadow="0">
            <root>
                <mxCell id="0"/>
                <mxCell id="1" parent="0"/>
                <mxCell id="2" value="&lt;p style=&quot;margin:0px;margin-top:4px;text-align:center;&quot;&gt;&lt;b&gt;User&lt;/b&gt;&lt;/p&gt;&lt;hr size=&quot;1&quot;&gt;&lt;p style=&quot;margin:0px;margin-left:4px;&quot;&gt;- userID: string&lt;/p&gt;&lt;p style=&quot;margin:0px;margin-left:4px;&quot;&gt;- username&lt;/p&gt;&lt;p style=&quot;margin:0px;margin-left:4px;&quot;&gt;- name: string&lt;/p&gt;&lt;p style=&quot;margin:0px;margin-left:4px;&quot;&gt;- email: string&lt;/p&gt;&lt;p style=&quot;margin:0px;margin-left:4px;&quot;&gt;- password: string&lt;/p&gt;&lt;p style=&quot;margin:0px;margin-left:4px;&quot;&gt;- role: Role&lt;/p&gt;&lt;hr size=&quot;1&quot;&gt;&lt;p style=&quot;margin:0px;margin-left:4px;&quot;&gt;+ createQuestionBank(): questionBank&lt;br&gt;+ updateQuestionBank(questionBankID, role): void&lt;/p&gt;&lt;p style=&quot;margin:0px;margin-left:4px;&quot;&gt;+ createTest(): Test&lt;/p&gt;&lt;p style=&quot;margin:0px;margin-left:4px;&quot;&gt;+ updateTest(testID): void&lt;/p&gt;&lt;p style=&quot;margin:0px;margin-left:4px;&quot;&gt;+ inviteCollaborators(List&amp;lt;userID&amp;gt;, questionBankID, List&amp;lt;Role&amp;gt;): void&lt;/p&gt;&lt;p style=&quot;margin:0px;margin-left:4px;&quot;&gt;+ updateCollaborators(userID, questionBankID, role): void&lt;/p&gt;" style="verticalAlign=top;align=left;overflow=fill;fontSize=12;fontFamily=Helvetica;html=1;" parent="1" vertex="1">
                    <mxGeometry x="-200" y="-200" width="400" height="220" as="geometry"/>
                </mxCell>
                <mxCell id="3" value="&lt;p style=&quot;margin:0px;margin-top:4px;text-align:center;&quot;&gt;&lt;b&gt;Question bank&lt;/b&gt;&lt;/p&gt;&lt;hr size=&quot;1&quot;&gt;&lt;p style=&quot;margin:0px;margin-left:4px;&quot;&gt;- questionBankID: string&lt;/p&gt;&lt;p style=&quot;margin:0px;margin-left:4px;&quot;&gt;- name: string&lt;/p&gt;&lt;p style=&quot;margin:0px;margin-left:4px;&quot;&gt;- labelList: List&amp;lt;Label&amp;gt;&lt;/p&gt;&lt;p style=&quot;margin:0px;margin-left:4px;&quot;&gt;- questionGroupList: List&amp;lt;QuestionGroup&amp;gt;&lt;/p&gt;&lt;hr size=&quot;1&quot;&gt;&lt;p style=&quot;margin:0px;margin-left:4px;&quot;&gt;+ addQuestion(Question, questionGroupID): void&lt;/p&gt;&lt;p style=&quot;margin:0px;margin-left:4px;&quot;&gt;+ addLabel(Label): void&lt;/p&gt;&lt;p style=&quot;margin: 0px 0px 0px 4px;&quot;&gt;+ updateQuestion(questionID): void&lt;/p&gt;&lt;p style=&quot;margin: 0px 0px 0px 4px;&quot;&gt;+ updateLabel(labelName): void&lt;/p&gt;&lt;p style=&quot;margin: 0px 0px 0px 4px;&quot;&gt;+ updateQuestionGroup(questionGroupID): void&lt;/p&gt;&lt;p style=&quot;margin: 0px 0px 0px 4px;&quot;&gt;+ createQuestionGroup(): questionGroup&lt;/p&gt;" style="verticalAlign=top;align=left;overflow=fill;fontSize=12;fontFamily=Helvetica;html=1;" parent="1" vertex="1">
                    <mxGeometry x="270" y="-190" width="290" height="200" as="geometry"/>
                </mxCell>
                <mxCell id="4" value="&lt;p style=&quot;margin:0px;margin-top:4px;text-align:center;&quot;&gt;&lt;b&gt;Question&lt;/b&gt;&lt;/p&gt;&lt;hr size=&quot;1&quot;&gt;&lt;p style=&quot;margin:0px;margin-left:4px;&quot;&gt;- questionID: string&lt;/p&gt;&lt;p style=&quot;margin:0px;margin-left:4px;&quot;&gt;- name: string&lt;/p&gt;&lt;p style=&quot;margin:0px;margin-left:4px;&quot;&gt;- description: string&lt;/p&gt;&lt;p style=&quot;margin:0px;margin-left:4px;&quot;&gt;- lastUpdated: string&lt;/p&gt;&lt;p style=&quot;margin:0px;margin-left:4px;&quot;&gt;- creator: User&lt;/p&gt;&lt;p style=&quot;margin:0px;margin-left:4px;&quot;&gt;- optionList: List&amp;lt;Option&amp;gt;&lt;/p&gt;&lt;hr size=&quot;1&quot;&gt;&lt;p style=&quot;margin:0px;margin-left:4px;&quot;&gt;+ addOption(Option): void&lt;/p&gt;&lt;p style=&quot;margin:0px;margin-left:4px;&quot;&gt;+ updateOptions(optionID): void&lt;/p&gt;" style="verticalAlign=top;align=left;overflow=fill;fontSize=12;fontFamily=Helvetica;html=1;" parent="1" vertex="1">
                    <mxGeometry x="670" y="-430" width="180" height="167.5" as="geometry"/>
                </mxCell>
                <mxCell id="6" value="&lt;p style=&quot;margin:0px;margin-top:4px;text-align:center;&quot;&gt;&lt;b&gt;Test&lt;/b&gt;&lt;/p&gt;&lt;hr size=&quot;1&quot;&gt;&lt;p style=&quot;margin:0px;margin-left:4px;&quot;&gt;- testID: string&lt;/p&gt;&lt;p style=&quot;margin:0px;margin-left:4px;&quot;&gt;- description: string&lt;/p&gt;&lt;p style=&quot;margin:0px;margin-left:4px;&quot;&gt;- lastUpdated: string&lt;/p&gt;&lt;p style=&quot;margin:0px;margin-left:4px;&quot;&gt;- creatorID: string&lt;/p&gt;&lt;p style=&quot;margin:0px;margin-left:4px;&quot;&gt;- name: string&lt;/p&gt;&lt;p style=&quot;margin:0px;margin-left:4px;&quot;&gt;- questionGroupList: List&amp;lt;QuestionGroup&amp;gt;&lt;/p&gt;&lt;hr size=&quot;1&quot;&gt;&lt;p style=&quot;margin:0px;margin-left:4px;&quot;&gt;+ addQuestions(List&amp;lt;QuestionGroup&amp;gt;): void&lt;/p&gt;&lt;p style=&quot;margin:0px;margin-left:4px;&quot;&gt;+ updateQuestionGroup(questionGroupID): void&lt;/p&gt;" style="verticalAlign=top;align=left;overflow=fill;fontSize=12;fontFamily=Helvetica;html=1;" parent="1" vertex="1">
                    <mxGeometry x="240" y="50" width="270" height="170" as="geometry"/>
                </mxCell>
                <mxCell id="7" value="&lt;p style=&quot;margin:0px;margin-top:4px;text-align:center;&quot;&gt;&lt;b&gt;Label&lt;/b&gt;&lt;/p&gt;&lt;hr size=&quot;1&quot;&gt;&lt;p style=&quot;margin:0px;margin-left:4px;&quot;&gt;- name: string&lt;/p&gt;&lt;p style=&quot;margin:0px;margin-left:4px;&quot;&gt;- description: string&lt;/p&gt;&lt;hr size=&quot;1&quot;&gt;&lt;p style=&quot;margin:0px;margin-left:4px;&quot;&gt;&lt;br&gt;&lt;/p&gt;" style="verticalAlign=top;align=left;overflow=fill;fontSize=12;fontFamily=Helvetica;html=1;" parent="1" vertex="1">
                    <mxGeometry x="335" y="-390" width="160" height="70" as="geometry"/>
                </mxCell>
                <mxCell id="8" value="&lt;p style=&quot;margin:0px;margin-top:4px;text-align:center;&quot;&gt;&lt;b&gt;Option&lt;/b&gt;&lt;/p&gt;&lt;hr size=&quot;1&quot;&gt;&lt;p style=&quot;margin:0px;margin-left:4px;&quot;&gt;- optionID: string&lt;/p&gt;&lt;p style=&quot;margin:0px;margin-left:4px;&quot;&gt;- description: string&lt;/p&gt;&lt;p style=&quot;margin:0px;margin-left:4px;&quot;&gt;- isCorrect: bool&lt;/p&gt;&lt;hr size=&quot;1&quot;&gt;&lt;p style=&quot;margin:0px;margin-left:4px;&quot;&gt;&lt;br&gt;&lt;/p&gt;" style="verticalAlign=top;align=left;overflow=fill;fontSize=12;fontFamily=Helvetica;html=1;" parent="1" vertex="1">
                    <mxGeometry x="680" y="-610" width="160" height="80" as="geometry"/>
                </mxCell>
                <mxCell id="9" value="&lt;p style=&quot;margin:0px;margin-top:4px;text-align:center;&quot;&gt;&lt;b&gt;Role&lt;/b&gt;&lt;/p&gt;&lt;hr size=&quot;1&quot;&gt;&lt;p style=&quot;margin:0px;margin-left:4px;&quot;&gt;- roleID: string&lt;/p&gt;&lt;p style=&quot;margin:0px;margin-left:4px;&quot;&gt;- name: string&lt;/p&gt;&lt;hr size=&quot;1&quot;&gt;&lt;p style=&quot;margin:0px;margin-left:4px;&quot;&gt;&lt;br&gt;&lt;/p&gt;" style="verticalAlign=top;align=left;overflow=fill;fontSize=12;fontFamily=Helvetica;html=1;" parent="1" vertex="1">
                    <mxGeometry x="40" y="-360" width="160" height="70" as="geometry"/>
                </mxCell>
                <mxCell id="10" value="&lt;p style=&quot;margin:0px;margin-top:4px;text-align:center;&quot;&gt;&lt;b&gt;Permission&lt;/b&gt;&lt;/p&gt;&lt;hr size=&quot;1&quot;&gt;&lt;p style=&quot;margin:0px;margin-left:4px;&quot;&gt;- permissionID: string&lt;/p&gt;&lt;p style=&quot;margin:0px;margin-left:4px;&quot;&gt;- name: string&lt;/p&gt;&lt;hr size=&quot;1&quot;&gt;&lt;p style=&quot;margin:0px;margin-left:4px;&quot;&gt;&lt;br&gt;&lt;/p&gt;" style="verticalAlign=top;align=left;overflow=fill;fontSize=12;fontFamily=Helvetica;html=1;" parent="1" vertex="1">
                    <mxGeometry x="40" y="-540" width="160" height="70" as="geometry"/>
                </mxCell>
                <mxCell id="11" value="&lt;p style=&quot;margin:0px;margin-top:4px;text-align:center;&quot;&gt;&lt;b&gt;Question group&lt;/b&gt;&lt;/p&gt;&lt;hr size=&quot;1&quot;&gt;&lt;p style=&quot;margin:0px;margin-left:4px;&quot;&gt;- questionGroupID: string&lt;/p&gt;&lt;p style=&quot;margin:0px;margin-left:4px;&quot;&gt;- difficulty: string&lt;/p&gt;&lt;p style=&quot;margin:0px;margin-left:4px;&quot;&gt;- questionList: List&amp;lt;Question&amp;gt;&lt;/p&gt;&lt;hr size=&quot;1&quot;&gt;&lt;p style=&quot;margin:0px;margin-left:4px;&quot;&gt;+ addQuestion(Question): void&lt;/p&gt;&lt;p style=&quot;margin:0px;margin-left:4px;&quot;&gt;+ updateQuestion(questionID): void&lt;/p&gt;" style="verticalAlign=top;align=left;overflow=fill;fontSize=12;fontFamily=Helvetica;html=1;" parent="1" vertex="1">
                    <mxGeometry x="660" y="-152.5" width="200" height="125" as="geometry"/>
                </mxCell>
                <mxCell id="15" value="" style="endArrow=block;endFill=1;html=1;edgeStyle=orthogonalEdgeStyle;align=left;verticalAlign=top;exitX=1;exitY=0.5;exitDx=0;exitDy=0;entryX=0;entryY=0.5;entryDx=0;entryDy=0;" parent="1" source="2" target="3" edge="1">
                    <mxGeometry x="-1" relative="1" as="geometry">
                        <mxPoint x="220" y="-100" as="sourcePoint"/>
                        <mxPoint x="240" y="-100" as="targetPoint"/>
                        <mxPoint as="offset"/>
                    </mxGeometry>
                </mxCell>
                <mxCell id="16" value="*&amp;nbsp; &amp;nbsp; &amp;nbsp;create&amp;nbsp; &amp;nbsp; *" style="edgeLabel;resizable=0;html=1;align=left;verticalAlign=bottom;" parent="15" connectable="0" vertex="1">
                    <mxGeometry x="-1" relative="1" as="geometry"/>
                </mxCell>
                <mxCell id="17" value="" style="endArrow=diamondThin;endFill=1;endSize=24;html=1;exitX=0;exitY=0.5;exitDx=0;exitDy=0;entryX=1;entryY=0.5;entryDx=0;entryDy=0;" parent="1" source="11" target="3" edge="1">
                    <mxGeometry width="160" relative="1" as="geometry">
                        <mxPoint x="500" y="-40" as="sourcePoint"/>
                        <mxPoint x="660" y="-40" as="targetPoint"/>
                    </mxGeometry>
                </mxCell>
                <mxCell id="18" value="1" style="text;html=1;strokeColor=none;fillColor=none;align=center;verticalAlign=middle;whiteSpace=wrap;rounded=0;" parent="1" vertex="1">
                    <mxGeometry x="580" y="-120" width="20" height="30" as="geometry"/>
                </mxCell>
                <mxCell id="20" value="1..*" style="text;html=1;strokeColor=none;fillColor=none;align=center;verticalAlign=middle;whiteSpace=wrap;rounded=0;" parent="1" vertex="1">
                    <mxGeometry x="633" y="-122" width="30" height="30" as="geometry"/>
                </mxCell>
                <mxCell id="21" value="" style="endArrow=diamondThin;endFill=1;endSize=24;html=1;exitX=0.5;exitY=1;exitDx=0;exitDy=0;entryX=0.5;entryY=0;entryDx=0;entryDy=0;" parent="1" source="4" target="11" edge="1">
                    <mxGeometry width="160" relative="1" as="geometry">
                        <mxPoint x="910" y="-125" as="sourcePoint"/>
                        <mxPoint x="820" y="-90" as="targetPoint"/>
                    </mxGeometry>
                </mxCell>
                <mxCell id="22" value="1..*" style="text;html=1;strokeColor=none;fillColor=none;align=center;verticalAlign=middle;whiteSpace=wrap;rounded=0;" parent="1" vertex="1">
                    <mxGeometry x="729" y="-190" width="30" height="30" as="geometry"/>
                </mxCell>
                <mxCell id="23" value="1..*" style="text;html=1;strokeColor=none;fillColor=none;align=center;verticalAlign=middle;whiteSpace=wrap;rounded=0;" parent="1" vertex="1">
                    <mxGeometry x="734" y="-262.5" width="25" height="30" as="geometry"/>
                </mxCell>
                <mxCell id="25" value="" style="endArrow=diamondThin;endFill=1;endSize=24;html=1;exitX=0.5;exitY=1;exitDx=0;exitDy=0;entryX=0.5;entryY=0;entryDx=0;entryDy=0;" parent="1" source="8" target="4" edge="1">
                    <mxGeometry width="160" relative="1" as="geometry">
                        <mxPoint x="1220" y="5" as="sourcePoint"/>
                        <mxPoint x="1080" y="5" as="targetPoint"/>
                    </mxGeometry>
                </mxCell>
                <mxCell id="26" value="1" style="text;html=1;strokeColor=none;fillColor=none;align=center;verticalAlign=middle;whiteSpace=wrap;rounded=0;" parent="1" vertex="1">
                    <mxGeometry x="729" y="-450" width="30" height="20" as="geometry"/>
                </mxCell>
                <mxCell id="29" value="1..*" style="text;html=1;strokeColor=none;fillColor=none;align=center;verticalAlign=middle;whiteSpace=wrap;rounded=0;" parent="1" vertex="1">
                    <mxGeometry x="729" y="-530" width="30" height="20" as="geometry"/>
                </mxCell>
                <mxCell id="30" value="" style="endArrow=none;html=1;exitX=0.5;exitY=1;exitDx=0;exitDy=0;entryX=0;entryY=0.5;entryDx=0;entryDy=0;" parent="1" source="2" target="6" edge="1">
                    <mxGeometry width="50" height="50" relative="1" as="geometry">
                        <mxPoint x="190" y="100" as="sourcePoint"/>
                        <mxPoint x="240" y="50" as="targetPoint"/>
                    </mxGeometry>
                </mxCell>
                <mxCell id="32" value="" style="endArrow=diamondThin;endFill=1;endSize=24;html=1;exitX=0.5;exitY=1;exitDx=0;exitDy=0;entryX=1;entryY=0.5;entryDx=0;entryDy=0;" parent="1" source="11" target="6" edge="1">
                    <mxGeometry width="160" relative="1" as="geometry">
                        <mxPoint x="570" y="100" as="sourcePoint"/>
                        <mxPoint x="480" y="100" as="targetPoint"/>
                    </mxGeometry>
                </mxCell>
                <mxCell id="33" value="1" style="text;html=1;strokeColor=none;fillColor=none;align=center;verticalAlign=middle;whiteSpace=wrap;rounded=0;" parent="1" vertex="1">
                    <mxGeometry x="510" y="90" width="30" height="20" as="geometry"/>
                </mxCell>
                <mxCell id="34" value="1..*" style="text;html=1;strokeColor=none;fillColor=none;align=center;verticalAlign=middle;whiteSpace=wrap;rounded=0;" parent="1" vertex="1">
                    <mxGeometry x="759" y="-27.5" width="30" height="20" as="geometry"/>
                </mxCell>
                <mxCell id="38" value="" style="endArrow=diamondThin;endFill=1;endSize=24;html=1;exitX=0.5;exitY=1;exitDx=0;exitDy=0;entryX=0.5;entryY=0;entryDx=0;entryDy=0;" parent="1" source="7" target="3" edge="1">
                    <mxGeometry width="160" relative="1" as="geometry">
                        <mxPoint x="715.0000000000002" y="-55" as="sourcePoint"/>
                        <mxPoint x="540" y="-160" as="targetPoint"/>
                    </mxGeometry>
                </mxCell>
                <mxCell id="39" value="1..*" style="text;html=1;strokeColor=none;fillColor=none;align=center;verticalAlign=middle;whiteSpace=wrap;rounded=0;" parent="1" vertex="1">
                    <mxGeometry x="380" y="-220" width="30" height="20" as="geometry"/>
                </mxCell>
                <mxCell id="40" value="1..*" style="text;html=1;strokeColor=none;fillColor=none;align=center;verticalAlign=middle;whiteSpace=wrap;rounded=0;" parent="1" vertex="1">
                    <mxGeometry x="390" y="-310" width="30" height="20" as="geometry"/>
                </mxCell>
                <mxCell id="41" value="" style="endArrow=diamondThin;endFill=0;endSize=24;html=1;entryX=0;entryY=0;entryDx=0;entryDy=0;exitX=0.5;exitY=1;exitDx=0;exitDy=0;" parent="1" source="9" target="3" edge="1">
                    <mxGeometry width="160" relative="1" as="geometry">
                        <mxPoint x="150" y="-250" as="sourcePoint"/>
                        <mxPoint x="200" y="30" as="targetPoint"/>
                    </mxGeometry>
                </mxCell>
                <mxCell id="43" value="1..*" style="text;html=1;strokeColor=none;fillColor=none;align=center;verticalAlign=middle;whiteSpace=wrap;rounded=0;" parent="1" vertex="1">
                    <mxGeometry x="270" y="-230" width="30" height="20" as="geometry"/>
                </mxCell>
                <mxCell id="44" value="1..*" style="text;html=1;strokeColor=none;fillColor=none;align=center;verticalAlign=middle;whiteSpace=wrap;rounded=0;" parent="1" vertex="1">
                    <mxGeometry x="150" y="-290" width="30" height="20" as="geometry"/>
                </mxCell>
                <mxCell id="47" value="1" style="text;html=1;strokeColor=none;fillColor=none;align=center;verticalAlign=middle;whiteSpace=wrap;rounded=0;" parent="1" vertex="1">
                    <mxGeometry x="-30" y="-220" width="30" height="20" as="geometry"/>
                </mxCell>
                <mxCell id="48" value="1..*" style="text;html=1;strokeColor=none;fillColor=none;align=center;verticalAlign=middle;whiteSpace=wrap;rounded=0;" parent="1" vertex="1">
                    <mxGeometry x="70" y="-290" width="30" height="20" as="geometry"/>
                </mxCell>
                <mxCell id="52" value="" style="endArrow=none;html=1;exitX=0.5;exitY=0;exitDx=0;exitDy=0;entryX=0.5;entryY=1;entryDx=0;entryDy=0;" parent="1" source="2" target="9" edge="1">
                    <mxGeometry width="50" height="50" relative="1" as="geometry">
                        <mxPoint x="30" y="-190" as="sourcePoint"/>
                        <mxPoint x="80" y="-240" as="targetPoint"/>
                    </mxGeometry>
                </mxCell>
                <mxCell id="58" value="1..*" style="text;html=1;strokeColor=none;fillColor=none;align=center;verticalAlign=middle;whiteSpace=wrap;rounded=0;" parent="1" vertex="1">
                    <mxGeometry x="90" y="-380" width="30" height="20" as="geometry"/>
                </mxCell>
                <mxCell id="59" value="" style="endArrow=none;html=1;exitX=0.5;exitY=0;exitDx=0;exitDy=0;entryX=0.5;entryY=1;entryDx=0;entryDy=0;" parent="1" source="9" target="10" edge="1">
                    <mxGeometry width="50" height="50" relative="1" as="geometry">
                        <mxPoint x="80" y="-380" as="sourcePoint"/>
                        <mxPoint x="130" y="-430" as="targetPoint"/>
                    </mxGeometry>
                </mxCell>
                <mxCell id="60" value="1..*" style="text;html=1;strokeColor=none;fillColor=none;align=center;verticalAlign=middle;whiteSpace=wrap;rounded=0;" parent="1" vertex="1">
                    <mxGeometry x="90" y="-450" width="30" height="20" as="geometry"/>
                </mxCell>
            </root>
        </mxGraphModel>
    </diagram>
</mxfile>